ply
format ascii 1.0
element vertex 212
property float x
property float y
property float z
end_header
-0.514503 1.66833 -0.610436
-0.433461 1.44624 -0.529176
-0.419646 1.44191 -0.527591
-0.210916 1.47008 -0.537897
-0.200638 1.48849 -0.544636
-0.193456 1.53399 -0.561284
-0.183321 1.56108 -0.571194
-0.170949 1.57191 -0.575157
-0.157305 1.57191 -0.575157
-0.143759 1.57299 -0.575554
-0.130195 1.57408 -0.57595
-0.116131 1.56866 -0.573968
-0.102444 1.56758 -0.573572
-0.0896967 1.58274 -0.579121
-0.077778 1.62066 -0.592995
-0.0640512 1.62933 -0.596166
-0.0490789 1.60224 -0.586256
-0.0346481 1.57841 -0.577536
-0.0207892 1.56649 -0.573175
-0.00720676 1.56974 -0.574365
0.00639663 1.56433 -0.572383
0.0198368 1.55349 -0.568419
0.0332284 1.54916 -0.566833
0.0464794 1.54266 -0.564455
0.0585665 1.50908 -0.552167
0.0701221 1.47658 -0.540275
1.33825 1.76258 -0.644921
1.19465 1.55566 -0.569212
1.15094 1.48199 -0.542257
1.14594 1.45924 -0.533933
1.15431 1.45383 -0.531951
1.18693 1.47874 -0.541068
-1.97269 2.31474 -0.86563
-0.490449 1.57975 -0.590769
-0.433461 1.43663 -0.537246
-0.419961 1.4334 -0.536038
-0.245599 1.60343 -0.599623
-0.210139 1.45492 -0.544087
-0.20093 1.48075 -0.553745
-0.193319 1.52272 -0.56944
-0.182685 1.54532 -0.577891
-0.169771 1.5507 -0.579904
-0.15557 1.54424 -0.577489
-0.141482 1.53778 -0.575074
-0.128313 1.54101 -0.576282
-0.114767 1.53993 -0.575879
-0.101453 1.54209 -0.576684
-0.0888986 1.55823 -0.582721
-0.0768422 1.59051 -0.594793
-0.0635828 1.60665 -0.60083
-0.0491453 1.59374 -0.596001
-0.0347432 1.57222 -0.587952
-0.0207892 1.55608 -0.581916
-0.00717194 1.55177 -0.580306
0.00635677 1.54424 -0.577489
0.0197262 1.53455 -0.573867
0.0330192 1.52917 -0.571855
0.046153 1.52164 -0.569038
0.0586506 1.50119 -0.561392
0.0709967 1.48505 -0.555355
1.17469 1.51949 -0.568233
1.14253 1.46138 -0.546502
1.14084 1.44308 -0.53966
1.15173 1.44093 -0.538856
1.19127 1.47429 -0.551331
-1.94059 2.26184 -0.864335
-0.495794 1.58628 -0.606178
-0.435409 1.43342 -0.547766
-0.422168 1.43129 -0.546949
-0.210605 1.44839 -0.553485
-0.200784 1.46977 -0.561654
-0.191543 1.49863 -0.572683
-0.180649 1.51787 -0.580036
-0.168593 1.52963 -0.584529
-0.15492 1.52749 -0.583712
-0.140789 1.52001 -0.580852
-0.128313 1.5307 -0.584937
-0.116051 1.54673 -0.591064
-0.103223 1.55849 -0.595558
-0.0904949 1.57559 -0.602093
-0.07783 1.60018 -0.611488
-0.0643493 1.61514 -0.617207
-0.0502403 1.61835 -0.618432
-0.0357895 1.60873 -0.614756
-0.0214649 1.5959 -0.609854
-0.00734602 1.5788 -0.603319
0.00645422 1.55742 -0.595149
0.019906 1.53818 -0.587797
0.0331819 1.52642 -0.583303
0.0462509 1.51466 -0.57881
0.0593653 1.50932 -0.576768
0.0786622 1.63438 -0.624559
1.17469 1.50932 -0.576768
1.14505 1.4548 -0.555936
1.14764 1.44198 -0.551034
1.18011 1.46656 -0.560429
1.33997 1.64721 -0.629461
-0.439305 1.4365 -0.560846
-0.425952 1.43438 -0.560017
-0.472589 1.64035 -0.640434
-0.219309 1.49808 -0.584888
-0.203851 1.48216 -0.57867
-0.192909 1.49915 -0.585302
-0.182558 1.52357 -0.594836
-0.173187 1.56073 -0.609345
-0.162183 1.58833 -0.620122
-0.149205 1.60001 -0.624682
-0.136557 1.61806 -0.631729
-0.123509 1.63505 -0.638361
-0.109453 1.64142 -0.640848
-0.095345 1.64885 -0.64375
-0.0813654 1.66159 -0.648724
-0.0669472 1.66902 -0.651626
-0.0522646 1.67221 -0.652869
-0.0374066 1.67008 -0.65204
-0.0225288 1.66371 -0.649553
-0.00777375 1.65947 -0.647895
0.0068529 1.64248 -0.641263
0.0208743 1.60213 -0.625511
0.0342973 1.5671 -0.611832
0.0474586 1.54374 -0.602712
0.0603744 1.52463 -0.595251
0.0769131 1.58727 -0.619708
1.16803 1.49065 -0.581986
1.15683 1.45986 -0.569965
1.17146 1.46199 -0.570794
1.21796 1.50339 -0.58696
-1.96386 2.16914 -0.865101
-1.94357 2.16808 -0.864681
-1.92517 2.16914 -0.865101
-0.462683 1.50268 -0.599304
-0.431311 1.44258 -0.575332
-0.457601 1.57755 -0.629165
-0.240137 1.62923 -0.649772
-0.21378 1.54381 -0.615707
-0.206708 1.59548 -0.636314
0.050233 1.6229 -0.647249
0.0616357 1.54592 -0.616548
0.0745465 1.52799 -0.609398
0.0949873 1.6461 -0.656501
1.17053 1.4837 -0.591734
1.17198 1.46894 -0.585846
1.24293 1.54065 -0.614445
-1.99862 2.17108 -0.88436
-1.96767 2.15851 -0.879241
-1.93506 2.14385 -0.873268
-1.90084 2.12709 -0.866443
-0.473073 1.52593 -0.621569
-0.437302 1.45262 -0.591707
-0.44873 1.53641 -0.625835
-0.228946 1.54269 -0.628395
-0.224732 1.61181 -0.656551
0.0631493 1.57306 -0.640767
0.0723857 1.47357 -0.600239
0.0868333 1.49451 -0.608771
1.21816 1.55107 -0.631808
1.16969 1.47252 -0.599812
1.21236 1.50918 -0.614743
-1.99862 2.15614 -0.89689
-1.94763 2.12182 -0.882613
-1.90008 2.09062 -0.869633
-0.490281 1.57056 -0.653307
-0.441401 1.45615 -0.605715
-0.444142 1.51024 -0.628213
-0.216201 1.44679 -0.601821
-0.219621 1.56432 -0.650711
0.0712539 1.44055 -0.599225
0.0834257 1.42599 -0.593168
0.103765 1.53624 -0.639029
1.1795 1.49151 -0.620425
1.188 1.48527 -0.617829
1.27799 1.57992 -0.6572
-1.88939 2.04412 -0.868183
-0.444238 1.45536 -0.618125
-0.438024 1.47912 -0.628215
-0.23505 1.47292 -0.625583
-0.212004 1.40888 -0.598384
-0.211444 1.49565 -0.635234
0.0720256 1.44607 -0.614177
0.0848253 1.43987 -0.611545
0.105029 1.54419 -0.655853
1.20342 1.5287 -0.649273
1.18608 1.48945 -0.632602
1.23209 1.52973 -0.649711
-0.449283 1.46162 -0.633757
-0.434354 1.4565 -0.631534
-0.21589 1.4247 -0.617747
-0.212466 1.49239 -0.6471
0.0721285 1.43803 -0.623528
0.0882329 1.48727 -0.644876
1.21734 1.51804 -0.658218
-0.435271 1.44932 -0.641469
-0.209984 1.4646 -0.648231
0.0720256 1.4259 -0.631101
0.0867116 1.45136 -0.642371
-0.439859 1.45424 -0.656923
-0.457599 1.612 -0.728188
-0.204435 1.41581 -0.639563
0.073569 1.44615 -0.653268
0.087381 1.45222 -0.656009
-0.219465 1.41778 -0.65358
-0.202244 1.39067 -0.641082
-0.432267 1.45346 -0.683685
-1.58543 1.60331 -0.866024
-1.59479 1.6005 -0.881436
-1.55468 1.57608 -0.867987
-1.59666 1.59009 -0.892783
-1.54727 1.55653 -0.873943
-8.35686 2.6574 -8.86875
-8.28275 2.65927 -8.87501
-7.92339 2.46149 -8.45745
-7.8729 2.46943 -8.48473
