ply
format ascii 1.0
element vertex 1390
property float x
property float y
property float z
end_header
-0.0280735 0.605697 -0.596135
-0.0958354 0.652006 -0.606882
0.0844601 0.594433 -0.523345
0.0575921 0.590547 -0.448281
-0.289757 0.570211 -0.424878
-0.294551 0.566915 -0.422422
-0.300146 0.565267 -0.421194
-0.306597 0.565267 -0.421194
-0.313504 0.566091 -0.421808
-0.32043 0.566915 -0.422422
-0.327849 0.568563 -0.42365
-0.335307 0.570211 -0.424878
-0.342802 0.571859 -0.426106
-0.280342 0.582677 -0.426167
-0.284478 0.57769 -0.422519
-0.288919 0.573534 -0.419479
-0.294123 0.57104 -0.417655
-0.300146 0.570209 -0.417047
-0.307491 0.571871 -0.418263
-0.314873 0.573534 -0.419479
-0.322758 0.576027 -0.421303
-0.32975 0.576859 -0.421911
-0.336761 0.57769 -0.422519
-0.34379 0.578521 -0.423127
-0.350838 0.579352 -0.423735
-0.358418 0.581015 -0.424951
-0.366557 0.583508 -0.426774
0.0832622 0.595272 -0.427346
0.0764779 0.594434 -0.426745
0.0698109 0.594434 -0.426745
0.0627877 0.59108 -0.424337
0.0559989 0.589403 -0.423133
0.0493883 0.589403 -0.423133
0.0427169 0.588565 -0.422531
0.0359614 0.58605 -0.420726
0.0293463 0.585211 -0.420124
0.022848 0.586888 -0.421328
0.0163121 0.588565 -0.422531
0.00973858 0.590242 -0.423735
0.00312301 0.59108 -0.424337
-0.00351137 0.591919 -0.424939
-0.0101502 0.591919 -0.424939
-0.0168603 0.594434 -0.426745
-0.274921 0.590242 -0.423735
-0.279942 0.586888 -0.421328
-0.284478 0.582696 -0.418318
-0.289338 0.579342 -0.41591
-0.295408 0.578504 -0.415309
-0.301896 0.578504 -0.415309
-0.309725 0.581019 -0.417114
-0.318067 0.584373 -0.419522
-0.325553 0.58605 -0.420726
-0.332601 0.586888 -0.421328
-0.339183 0.586888 -0.421328
-0.345766 0.586888 -0.421328
-0.352851 0.587727 -0.421929
-0.359956 0.588565 -0.422531
-0.368124 0.59108 -0.424337
-0.376879 0.594434 -0.426745
0.103728 0.602924 -0.424842
0.0966151 0.600387 -0.423055
0.0895586 0.59785 -0.421267
0.0826759 0.596159 -0.420076
0.0758307 0.594467 -0.418884
0.0691217 0.593622 -0.418288
0.0623424 0.591931 -0.417096
0.0556006 0.590239 -0.415905
0.0488966 0.588548 -0.414713
0.0422909 0.587703 -0.414117
0.0357556 0.587703 -0.414117
0.0291781 0.586857 -0.413521
0.0226848 0.587703 -0.414117
0.0161959 0.589394 -0.415309
0.00966942 0.591085 -0.416501
0.00310529 0.592776 -0.417692
-0.0034865 0.592776 -0.417692
-0.0100783 0.592776 -0.417692
-0.0166939 0.593622 -0.418288
-0.0233946 0.596159 -0.420076
-0.0301092 0.59785 -0.421267
-0.0369134 0.600387 -0.423055
-0.0438968 0.604615 -0.426034
-0.265027 0.602924 -0.424842
-0.269445 0.59785 -0.421267
-0.274531 0.594467 -0.418884
-0.279942 0.591931 -0.417096
-0.285296 0.589394 -0.415309
-0.291432 0.588548 -0.414713
-0.297548 0.587703 -0.414117
-0.304084 0.587703 -0.414117
-0.31196 0.590239 -0.415905
-0.319436 0.591931 -0.417096
-0.32695 0.593622 -0.418288
-0.334026 0.594467 -0.418884
-0.341121 0.595313 -0.41948
-0.348235 0.596159 -0.420076
-0.355368 0.597004 -0.420671
-0.362007 0.597004 -0.420671
-0.370212 0.599541 -0.422459
-0.379006 0.602924 -0.424842
-0.387333 0.60546 -0.42663
-0.656647 0.60546 -0.42663
0.118123 0.613177 -0.424072
0.110278 0.607207 -0.419943
0.10271 0.60209 -0.416404
0.0957986 0.600384 -0.415225
0.0887986 0.597826 -0.413455
0.0819722 0.59612 -0.412276
0.0750757 0.593562 -0.410506
0.0685309 0.593562 -0.410506
0.0618971 0.592709 -0.409916
0.055282 0.591856 -0.409326
0.0486858 0.591003 -0.408737
0.0421084 0.59015 -0.408147
0.0355498 0.589298 -0.407557
0.029052 0.589298 -0.407557
0.0225543 0.589298 -0.407557
0.0160565 0.589298 -0.407557
0.00957258 0.59015 -0.408147
0.00306542 0.59015 -0.408147
-0.00344671 0.591003 -0.408737
-0.0099489 0.59015 -0.408147
-0.0164798 0.591003 -0.408737
-0.0231291 0.594415 -0.411096
-0.0297259 0.595267 -0.411686
-0.0364974 0.598679 -0.414045
-0.0433442 0.60209 -0.416404
-0.0502662 0.605501 -0.418763
-0.0572634 0.608912 -0.421123
-0.0644255 0.613177 -0.424072
-0.252676 0.610618 -0.422302
-0.257598 0.606354 -0.419353
-0.262797 0.602943 -0.416994
-0.268301 0.600384 -0.415225
-0.27375 0.597826 -0.413455
-0.279942 0.596973 -0.412865
-0.286524 0.596973 -0.412865
-0.292688 0.59612 -0.412276
-0.299261 0.59612 -0.412276
-0.305834 0.59612 -0.412276
-0.312854 0.596973 -0.412865
-0.320349 0.598679 -0.414045
-0.327416 0.599531 -0.414635
-0.334502 0.600384 -0.415225
-0.342091 0.60209 -0.416404
-0.349717 0.603796 -0.417584
-0.356878 0.604648 -0.418174
-0.364058 0.605501 -0.418763
-0.371779 0.607207 -0.419943
-0.3806 0.610618 -0.422302
-0.389497 0.614029 -0.424661
-0.398469 0.617441 -0.427021
-0.647673 0.614882 -0.425251
-0.650822 0.611471 -0.422892
-0.654813 0.608912 -0.421123
0.132377 0.621796 -0.422061
0.124884 0.618356 -0.419726
0.117301 0.614056 -0.416807
0.109503 0.608036 -0.412721
0.101982 0.602875 -0.409218
0.0949821 0.600295 -0.407467
0.0880385 0.597715 -0.405715
0.0812686 0.595995 -0.404548
0.0745363 0.594275 -0.40338
0.0680386 0.594275 -0.40338
0.0615408 0.594275 -0.40338
0.055043 0.594275 -0.40338
0.048475 0.593415 -0.402797
0.0419258 0.592555 -0.402213
0.035344 0.590835 -0.401045
0.0287998 0.589115 -0.399878
0.0223258 0.588255 -0.399294
0.0158474 0.586535 -0.398127
0.00943425 0.586535 -0.398127
0.0030167 0.585675 -0.397543
-0.00338703 0.585675 -0.397543
-0.00979075 0.585675 -0.397543
-0.0162658 0.588255 -0.399294
-0.0228305 0.591695 -0.401629
-0.0293852 0.593415 -0.402797
-0.0360815 0.596855 -0.405132
-0.0428531 0.600295 -0.407467
-0.0497706 0.604595 -0.410385
-0.0567822 0.608896 -0.413304
-0.0638879 0.613196 -0.416223
-0.251618 0.613196 -0.416223
-0.256511 0.608896 -0.413304
-0.262053 0.606316 -0.411553
-0.26792 0.604595 -0.410385
-0.27414 0.603735 -0.409802
-0.280742 0.603735 -0.409802
-0.287752 0.604595 -0.410385
-0.293944 0.603735 -0.409802
-0.300545 0.603735 -0.409802
-0.307146 0.603735 -0.409802
-0.314195 0.604595 -0.410385
-0.321261 0.605456 -0.410969
-0.328347 0.606316 -0.411553
-0.335927 0.608036 -0.412721
-0.343544 0.609756 -0.413888
-0.351693 0.612336 -0.415639
-0.359395 0.614056 -0.416807
-0.366109 0.614056 -0.416807
-0.373345 0.614916 -0.417391
-0.382195 0.618356 -0.419726
-0.391661 0.622656 -0.422645
-0.40012 0.625236 -0.424396
-0.409195 0.628676 -0.426731
-0.649469 0.621796 -0.422061
-0.652637 0.618356 -0.419726
-0.65573 0.614916 -0.417391
0.134758 0.638278 -0.425201
0.125058 0.624402 -0.415958
0.11648 0.614863 -0.409603
0.108729 0.608792 -0.405559
0.1014 0.604456 -0.40267
0.0943017 0.600987 -0.400359
0.0874052 0.598386 -0.398626
0.0806823 0.596651 -0.397471
0.073997 0.594917 -0.396315
0.0675462 0.594917 -0.396315
0.0610955 0.594917 -0.396315
0.0545651 0.594049 -0.395737
0.0480535 0.593182 -0.39516
0.0415607 0.592315 -0.394582
0.0350868 0.591448 -0.394004
0.0285895 0.589713 -0.392849
0.0221626 0.588846 -0.392271
0.0157312 0.587112 -0.391116
0.00933742 0.585377 -0.38996
0.00298569 0.58451 -0.389382
-0.00334724 0.583643 -0.388805
-0.00970449 0.585377 -0.38996
-0.0161231 0.587979 -0.391693
-0.0225982 0.590581 -0.393427
-0.0290445 0.591448 -0.394004
-0.0357176 0.595784 -0.396893
-0.0425461 0.600987 -0.400359
-0.0494166 0.605323 -0.403248
-0.056301 0.608792 -0.405559
-0.0635295 0.614863 -0.409603
-0.260793 0.64088 -0.426934
-0.25796 0.617465 -0.411336
-0.263912 0.61573 -0.41018
-0.269826 0.613996 -0.409025
-0.276484 0.613996 -0.409025
-0.283141 0.613996 -0.409025
-0.289799 0.613996 -0.409025
-0.296038 0.613128 -0.408447
-0.30183 0.611394 -0.407292
-0.308897 0.612261 -0.407869
-0.315982 0.613128 -0.408447
-0.323087 0.613996 -0.409025
-0.330676 0.61573 -0.41018
-0.338778 0.618332 -0.411914
-0.347421 0.621801 -0.414224
-0.355645 0.624402 -0.415958
-0.362918 0.62527 -0.416535
-0.369186 0.624402 -0.415958
-0.375956 0.624402 -0.415958
-0.384321 0.627004 -0.417691
-0.393284 0.630473 -0.420002
-0.402322 0.633942 -0.422312
-0.411435 0.637411 -0.424623
-0.420054 0.640012 -0.426356
-0.42815 0.641747 -0.427512
-0.653337 0.637411 -0.424623
-0.651266 0.628738 -0.418846
-0.653545 0.624402 -0.415958
-0.657564 0.621801 -0.414224
0.136039 0.649701 -0.424754
0.125405 0.631338 -0.412749
0.115659 0.615598 -0.402459
0.1078 0.608603 -0.397885
0.100818 0.605979 -0.39617
0.0937574 0.602481 -0.393884
0.0868985 0.599858 -0.392169
0.0800959 0.597235 -0.390454
0.0735655 0.596361 -0.389882
0.0671524 0.596361 -0.389882
0.0606502 0.595486 -0.38931
0.0540872 0.593737 -0.388167
0.0475617 0.591988 -0.387024
0.0411348 0.591114 -0.386452
0.0347266 0.590239 -0.38588
0.0283373 0.589365 -0.385309
0.0219994 0.589365 -0.385309
0.0156615 0.589365 -0.385309
0.00929592 0.587616 -0.384165
0.00296797 0.585867 -0.383022
-0.00333232 0.585867 -0.383022
-0.00966136 0.587616 -0.384165
-0.0160518 0.590239 -0.38588
-0.0224323 0.591114 -0.386452
-0.0288742 0.592863 -0.387595
-0.0354056 0.595486 -0.38931
-0.0421163 0.599858 -0.392169
-0.0489919 0.605105 -0.395599
-0.0559802 0.610351 -0.399029
-0.0629918 0.614723 -0.401887
-0.260858 0.629589 -0.411606
-0.267257 0.628714 -0.411034
-0.273637 0.62784 -0.410462
-0.279998 0.626965 -0.409891
-0.28674 0.626965 -0.409891
-0.292255 0.624342 -0.408176
-0.297713 0.621719 -0.40646
-0.30397 0.620844 -0.405889
-0.310647 0.620844 -0.405889
-0.317323 0.620844 -0.405889
-0.324912 0.622593 -0.407032
-0.33347 0.626091 -0.409319
-0.342104 0.629589 -0.411606
-0.350812 0.633087 -0.413892
-0.358608 0.634835 -0.415036
-0.365435 0.634835 -0.415036
-0.371749 0.633961 -0.414464
-0.378567 0.633961 -0.414464
-0.386447 0.63571 -0.415607
-0.394366 0.637459 -0.416751
-0.402872 0.640082 -0.418466
-0.411994 0.64358 -0.420752
-0.421192 0.647077 -0.423039
-0.429886 0.649701 -0.424754
-0.650823 0.647077 -0.423039
-0.649782 0.639207 -0.417894
-0.651266 0.633961 -0.414464
-0.653545 0.629589 -0.411606
-0.658481 0.62784 -0.410462
0.136039 0.655053 -0.420263
0.125058 0.634775 -0.407254
0.114837 0.616261 -0.395375
0.107335 0.610971 -0.391982
0.100236 0.607445 -0.389719
0.0932131 0.603918 -0.387457
0.0862651 0.600392 -0.385194
0.0796268 0.598628 -0.384063
0.0733498 0.59951 -0.384628
0.0669555 0.59951 -0.384628
0.060383 0.597747 -0.383497
0.0537685 0.595102 -0.3818
0.0472807 0.593339 -0.380669
0.0408305 0.591575 -0.379538
0.0344179 0.589812 -0.378407
0.0281271 0.589812 -0.378407
0.0218688 0.590694 -0.378972
0.0155685 0.590694 -0.378972
0.00925442 0.589812 -0.378407
0.00295911 0.58893 -0.377841
-0.00332237 0.58893 -0.377841
-0.0096326 0.590694 -0.378972
-0.0159805 0.592457 -0.380103
-0.0223327 0.593339 -0.380669
-0.0287464 0.595102 -0.3818
-0.0351977 0.596865 -0.382932
-0.041748 0.59951 -0.384628
-0.0485671 0.6048 -0.388022
-0.0554188 0.609208 -0.39085
-0.0621854 0.611853 -0.392547
-0.0688104 0.612734 -0.393113
-0.263757 0.641828 -0.411779
-0.270602 0.641828 -0.411779
-0.277067 0.640947 -0.411213
-0.283513 0.640065 -0.410647
-0.28954 0.638302 -0.409516
-0.29512 0.635657 -0.407819
-0.300225 0.63213 -0.405557
-0.306111 0.630367 -0.404425
-0.312397 0.629485 -0.40386
-0.319558 0.630367 -0.404425
-0.327194 0.63213 -0.405557
-0.335333 0.634775 -0.407254
-0.344004 0.638302 -0.409516
-0.352266 0.640947 -0.411213
-0.36009 0.64271 -0.412344
-0.367449 0.643592 -0.41291
-0.375851 0.646236 -0.414607
-0.383788 0.648 -0.415738
-0.390168 0.647118 -0.415172
-0.39653 0.646236 -0.414607
-0.403422 0.646236 -0.414607
-0.411994 0.648881 -0.416304
-0.421192 0.652408 -0.418566
-0.429886 0.655053 -0.420263
-0.649085 0.657698 -0.42196
-0.647305 0.648881 -0.416304
-0.648004 0.64271 -0.412344
-0.650368 0.638302 -0.409516
-0.65536 0.636539 -0.408385
-0.661232 0.635657 -0.407819
0.144951 0.669293 -0.421368
0.135673 0.658627 -0.414653
0.124016 0.634629 -0.399544
0.114016 0.616852 -0.388352
0.106715 0.612408 -0.385554
0.099509 0.607964 -0.382757
0.0925327 0.604408 -0.380518
0.0856317 0.600853 -0.37828
0.0791577 0.599964 -0.37772
0.0729183 0.600853 -0.37828
0.0665616 0.600853 -0.37828
0.0599377 0.598186 -0.376601
0.0535296 0.597298 -0.376042
0.0471402 0.596409 -0.375482
0.040648 0.593742 -0.373803
0.0343151 0.592853 -0.373244
0.028085 0.593742 -0.373803
0.0218362 0.594631 -0.374363
0.0155221 0.593742 -0.373803
0.00922675 0.592853 -0.373244
0.00294582 0.591076 -0.372124
-0.00330248 0.590187 -0.371565
-0.0095751 0.591965 -0.372684
-0.0159091 0.594631 -0.374363
-0.0222332 0.59552 -0.374922
-0.028576 0.596409 -0.375482
-0.0349897 0.598186 -0.376601
-0.041441 0.599964 -0.37772
-0.0481423 0.604408 -0.380518
-0.0550178 0.609741 -0.383876
-0.061827 0.613297 -0.386114
-0.0684143 0.614185 -0.386674
-0.281382 0.672849 -0.423606
-0.278591 0.649739 -0.409057
-0.285465 0.649739 -0.409057
-0.291939 0.64885 -0.408497
-0.297985 0.647072 -0.407378
-0.303575 0.644406 -0.4057
-0.309536 0.642628 -0.40458
-0.315897 0.641739 -0.404021
-0.323133 0.642628 -0.40458
-0.330388 0.643517 -0.40514
-0.337662 0.644406 -0.4057
-0.34543 0.646184 -0.406819
-0.35372 0.64885 -0.408497
-0.36256 0.652405 -0.410736
-0.371979 0.65685 -0.413534
-0.381492 0.661294 -0.416332
-0.389532 0.663071 -0.417451
-0.394953 0.660405 -0.415772
-0.399234 0.655961 -0.412974
-0.403973 0.652405 -0.410736
-0.411435 0.653294 -0.411295
-0.420054 0.655961 -0.412974
-0.652398 0.673737 -0.424166
-0.646475 0.660405 -0.415772
-0.642908 0.649739 -0.409057
-0.644448 0.644406 -0.4057
-0.648571 0.641739 -0.404021
-0.654453 0.640851 -0.403461
-0.661232 0.640851 -0.403461
0.142834 0.664861 -0.410728
0.133476 0.653213 -0.403532
0.122279 0.630812 -0.389693
0.11303 0.616475 -0.380836
0.105631 0.611099 -0.377515
0.0984906 0.606619 -0.374747
0.0917163 0.60393 -0.373087
0.0852517 0.603034 -0.372533
0.0789232 0.603034 -0.372533
0.0725947 0.603034 -0.372533
0.0660693 0.601242 -0.371426
0.0597596 0.601242 -0.371426
0.0536092 0.603034 -0.372533
0.0472105 0.602138 -0.37198
0.0405871 0.597658 -0.369212
0.0342636 0.596762 -0.368658
0.0281691 0.600346 -0.370873
0.0219341 0.602138 -0.37198
0.0155685 0.600346 -0.370873
0.00924059 0.598554 -0.369766
0.00294139 0.59497 -0.367551
-0.0032975 0.594074 -0.366998
-0.00958947 0.597658 -0.369212
-0.0159329 0.600346 -0.370873
-0.0222332 0.600346 -0.370873
-0.0285335 0.600346 -0.370873
-0.0349377 0.602138 -0.37198
-0.0413796 0.60393 -0.373087
-0.0479299 0.606619 -0.374747
-0.0547772 0.611995 -0.378069
-0.0615582 0.615579 -0.380283
-0.287027 0.658589 -0.406853
-0.294339 0.659485 -0.407406
-0.30126 0.659485 -0.407406
-0.307762 0.658589 -0.406853
-0.313817 0.656797 -0.405746
-0.32071 0.656797 -0.405746
-0.32805 0.657693 -0.406299
-0.335408 0.658589 -0.406853
-0.341854 0.657693 -0.406299
-0.349231 0.658589 -0.406853
-0.357596 0.661277 -0.408513
-0.367006 0.665757 -0.411281
-0.376006 0.669341 -0.413495
-0.384568 0.672029 -0.415156
-0.391621 0.672029 -0.415156
-0.397079 0.669341 -0.413495
-0.400316 0.663069 -0.40962
-0.405073 0.659485 -0.407406
-0.411435 0.658589 -0.406853
-0.653784 0.688158 -0.42512
-0.651538 0.678302 -0.419031
-0.644735 0.663965 -0.410174
-0.642028 0.654109 -0.404085
-0.642671 0.647836 -0.40021
-0.645876 0.644252 -0.397996
-0.652637 0.644252 -0.397996
-0.661232 0.646044 -0.399103
0.148801 0.66569 -0.403505
0.141101 0.662077 -0.401315
0.131462 0.648528 -0.393103
0.121063 0.62956 -0.381605
0.112373 0.617818 -0.374488
0.105167 0.613302 -0.37175
0.0986361 0.612399 -0.371203
0.0925327 0.614205 -0.372298
0.0862651 0.615108 -0.372845
0.0796268 0.613302 -0.37175
0.0727026 0.608786 -0.369013
0.0660693 0.606076 -0.36737
0.0601158 0.609689 -0.36956
0.0541668 0.614205 -0.372298
0.0474915 0.610592 -0.370108
0.0407697 0.605173 -0.366823
0.0344694 0.605173 -0.366823
0.0284214 0.610592 -0.370108
0.0221626 0.613302 -0.37175
0.0157544 0.612399 -0.371203
0.00933742 0.609689 -0.36956
0.00297683 0.606979 -0.367918
-0.00332734 0.604269 -0.366275
-0.00964698 0.606076 -0.36737
-0.0160994 0.611495 -0.370655
-0.0225318 0.613302 -0.37175
-0.0288316 0.611495 -0.370655
-0.0351977 0.611495 -0.370655
-0.0416866 0.613302 -0.37175
-0.0480007 0.612399 -0.371203
-0.0545366 0.614205 -0.372298
-0.0611997 0.616915 -0.37394
-0.303716 0.670206 -0.406243
-0.311112 0.671109 -0.40679
-0.318098 0.671109 -0.40679
-0.325085 0.671109 -0.40679
-0.332519 0.672012 -0.407338
-0.339515 0.672012 -0.407338
-0.346977 0.672916 -0.407885
-0.354458 0.673819 -0.408433
-0.362442 0.675625 -0.409528
-0.369969 0.676529 -0.410075
-0.378019 0.678335 -0.41117
-0.385081 0.678335 -0.41117
-0.391621 0.677432 -0.410623
-0.39761 0.675625 -0.409528
-0.401398 0.670206 -0.406243
-0.406725 0.667496 -0.4046
-0.648497 0.703626 -0.4265
-0.651613 0.69911 -0.423763
-0.652081 0.691884 -0.419383
-0.650677 0.682851 -0.413908
-0.649085 0.673819 -0.408433
-0.647305 0.664787 -0.402958
-0.647115 0.657561 -0.398578
-0.646774 0.650335 -0.394198
-0.651729 0.648528 -0.393103
-0.659398 0.649431 -0.39365
0.139754 0.660984 -0.393094
0.130546 0.649148 -0.386056
0.120889 0.63367 -0.376851
0.112866 0.625476 -0.371978
0.106251 0.624566 -0.371436
0.100527 0.629118 -0.374144
0.09471 0.63367 -0.376851
0.0881652 0.63367 -0.376851
0.0807995 0.627297 -0.373061
0.073134 0.617282 -0.367105
0.0662662 0.61273 -0.364397
0.0607393 0.620924 -0.369271
0.0547244 0.625476 -0.371978
0.0480535 0.622745 -0.370353
0.0412565 0.617282 -0.367105
0.0349324 0.618193 -0.367646
0.0287577 0.622745 -0.370353
0.0224563 0.626387 -0.372519
0.0159868 0.626387 -0.372519
0.00947575 0.623656 -0.370895
0.00302555 0.621835 -0.369812
-0.00336216 0.615462 -0.366022
-0.00969011 0.613641 -0.364939
-0.0162896 0.623656 -0.370895
-0.0229964 0.630939 -0.375227
-0.0293852 0.628208 -0.373602
-0.0358216 0.627297 -0.373061
-0.0423005 0.627297 -0.373061
-0.0485671 0.624566 -0.371436
-0.0547772 0.621835 -0.369812
-0.0611101 0.620924 -0.369271
-0.0676223 0.621835 -0.369812
-0.313624 0.681924 -0.405548
-0.321095 0.682835 -0.406089
-0.328148 0.682835 -0.406089
-0.335647 0.683745 -0.406631
-0.342709 0.683745 -0.406631
-0.350703 0.685566 -0.407714
-0.358259 0.686476 -0.408255
-0.365349 0.686476 -0.408255
-0.371945 0.685566 -0.407714
-0.378523 0.684655 -0.407172
-0.385594 0.684655 -0.407172
-0.392665 0.684655 -0.407172
-0.398673 0.682835 -0.406089
-0.647665 0.708327 -0.42125
-0.649929 0.702864 -0.418001
-0.650378 0.695581 -0.41367
-0.649816 0.687387 -0.408797
-0.650825 0.681014 -0.405006
-0.651703 0.674641 -0.401216
-0.651559 0.667357 -0.396885
-0.650368 0.659163 -0.392012
-0.652637 0.654611 -0.389304
-0.659398 0.654611 -0.389304
0.137251 0.654284 -0.381746
0.128899 0.646025 -0.376927
0.121063 0.639602 -0.373179
0.114344 0.638684 -0.372644
0.108729 0.64419 -0.375856
0.10271 0.647861 -0.377998
0.096479 0.650613 -0.379604
0.0895586 0.648778 -0.378533
0.0817377 0.639602 -0.373179
0.073134 0.622166 -0.363007
0.0660693 0.615743 -0.359259
0.0610064 0.62859 -0.366755
0.0551227 0.635013 -0.370502
0.0486155 0.635013 -0.370502
0.0419258 0.63226 -0.368896
0.0353954 0.631343 -0.368361
0.0290941 0.635013 -0.370502
0.0227501 0.639602 -0.373179
0.0162192 0.640519 -0.373715
0.00962792 0.638684 -0.372644
0.00306099 0.634096 -0.369967
-0.00340692 0.62859 -0.366755
-0.0098195 0.626755 -0.365684
-0.0165987 0.640519 -0.373715
-0.0231955 0.641437 -0.37425
-0.0297685 0.641437 -0.37425
-0.0363415 0.641437 -0.37425
-0.0430372 0.643272 -0.375321
-0.049629 0.643272 -0.375321
-0.0561406 0.642355 -0.374786
-0.0626334 0.641437 -0.37425
-0.3521 0.693743 -0.404768
-0.359209 0.693743 -0.404768
-0.366318 0.693743 -0.404768
-0.372933 0.692825 -0.404233
-0.650226 0.724943 -0.422972
-0.645167 0.711178 -0.414941
-0.64572 0.703837 -0.410658
-0.647825 0.698331 -0.407445
-0.648956 0.691908 -0.403698
-0.649955 0.685484 -0.39995
-0.651703 0.679978 -0.396737
-0.651559 0.672637 -0.392454
-0.652164 0.666214 -0.388706
-0.654453 0.661625 -0.386029
-0.660315 0.660708 -0.385494
0.135326 0.650172 -0.372143
0.1278 0.645547 -0.369496
0.121758 0.648322 -0.371084
0.116644 0.656646 -0.375848
0.110587 0.660345 -0.377966
0.103873 0.660345 -0.377966
0.0968872 0.658495 -0.376907
0.0899386 0.656646 -0.375848
0.0822068 0.648322 -0.371084
0.0725947 0.622426 -0.356262
0.0656754 0.616877 -0.353086
0.0610064 0.633524 -0.362614
0.055521 0.644622 -0.368966
0.0492478 0.648322 -0.371084
0.042656 0.648322 -0.371084
0.0360128 0.647397 -0.370555
0.0295145 0.649247 -0.371613
0.0231418 0.655721 -0.375319
0.0166142 0.66127 -0.378495
0.00989075 0.66127 -0.378495
0.00314959 0.65757 -0.376378
-0.00355116 0.660345 -0.377966
-0.0105527 0.678842 -0.388553
-0.0169079 0.65757 -0.376378
-0.0232951 0.649247 -0.371613
-0.0298537 0.648322 -0.371084
-0.0365494 0.650172 -0.372143
-0.0434056 0.653871 -0.37426
-0.0504786 0.65942 -0.377436
-0.057504 0.663119 -0.379554
-0.0643359 0.664044 -0.380083
-0.649041 0.746356 -0.427196
-0.654188 0.743582 -0.425608
-0.651049 0.731559 -0.418727
-0.646 0.717686 -0.410786
-0.64572 0.709362 -0.406022
-0.647825 0.703813 -0.402846
-0.648956 0.697339 -0.39914
-0.650825 0.69179 -0.395964
-0.651703 0.685316 -0.392258
-0.651559 0.677917 -0.388024
-0.652164 0.671443 -0.384318
-0.653545 0.665894 -0.381142
-0.657564 0.663119 -0.379554
0.144965 0.669216 -0.375743
0.136674 0.66176 -0.371557
0.129631 0.659896 -0.37051
0.12471 0.669216 -0.375743
0.11993 0.680401 -0.382023
0.11322 0.681333 -0.382546
0.105328 0.674809 -0.378883
0.0977037 0.669216 -0.375743
0.0904453 0.665488 -0.37365
0.0826759 0.6571 -0.36894
0.0725947 0.627274 -0.352194
0.0649862 0.615157 -0.345391
0.0612736 0.641255 -0.360044
0.0563176 0.658964 -0.369987
0.0503016 0.667352 -0.374697
0.0438122 0.671081 -0.37679
0.0370417 0.671081 -0.37679
0.0303133 0.672013 -0.377313
0.0236967 0.676673 -0.37993
0.0171022 0.685993 -0.385163
0.0102642 0.691586 -0.388303
0.00327362 0.68879 -0.386733
-0.00368047 0.689722 -0.387256
-0.0106677 0.691586 -0.388303
-0.0170506 0.668284 -0.37522
-0.0233946 0.6571 -0.36894
-0.030024 0.6571 -0.36894
-0.0367574 0.658964 -0.369987
-0.0437126 0.663624 -0.372603
-0.0509034 0.670148 -0.376267
-0.0580655 0.674809 -0.378883
-0.0646943 0.672945 -0.377837
-0.650649 0.754034 -0.423365
-0.655002 0.750305 -0.421272
-0.653518 0.740053 -0.415515
-0.651827 0.7298 -0.409759
-0.651613 0.721412 -0.405049
-0.652081 0.713955 -0.400863
-0.649816 0.703703 -0.395106
-0.650825 0.697178 -0.391443
-0.652582 0.691586 -0.388303
-0.651559 0.683197 -0.383593
-0.653062 0.677605 -0.380453
-0.652637 0.670148 -0.376267
-0.656647 0.667352 -0.374697
0.145571 0.677206 -0.372955
0.138599 0.676267 -0.372438
0.133476 0.68472 -0.377093
0.128879 0.696931 -0.383818
0.123052 0.703506 -0.387439
0.115544 0.700688 -0.385887
0.107365 0.693174 -0.381749
0.0994727 0.686599 -0.378128
0.0919654 0.681903 -0.375542
0.0842004 0.674389 -0.371403
0.0724868 0.631183 -0.347609
0.0646908 0.617094 -0.33985
0.0638564 0.673449 -0.370886
0.0576717 0.680024 -0.374507
0.0512852 0.68566 -0.377611
0.0447858 0.691295 -0.380714
0.0380192 0.694113 -0.382266
0.0310701 0.694113 -0.382266
0.0242842 0.698809 -0.384852
0.0174739 0.706323 -0.388991
0.0104717 0.71102 -0.391577
0.00335336 0.71102 -0.391577
-0.0102221 0.667814 -0.367782
-0.0168841 0.666874 -0.367265
-0.0235273 0.665935 -0.366748
-0.0303221 0.668753 -0.3683
-0.0372773 0.673449 -0.370886
-0.0444493 0.680024 -0.374507
-0.051753 0.686599 -0.378128
-0.0588675 0.689417 -0.37968
-0.0654111 0.68566 -0.377611
-0.0719786 0.682842 -0.376059
-0.652701 0.86318 -0.475376
-0.65099 0.769254 -0.423648
-0.651453 0.7608 -0.418993
-0.654188 0.755165 -0.415889
-0.652695 0.744833 -0.410199
-0.652659 0.73638 -0.405543
-0.65498 0.730744 -0.40244
-0.654635 0.722291 -0.397784
-0.652398 0.711959 -0.392094
-0.651695 0.703506 -0.387439
-0.651703 0.695991 -0.383301
-0.650671 0.687538 -0.378645
-0.651266 0.680963 -0.375024
-0.654453 0.677206 -0.372955
-0.657564 0.673449 -0.370886
0.145975 0.684293 -0.36962
0.139946 0.688079 -0.371665
0.135307 0.699436 -0.377799
0.129747 0.707008 -0.381889
0.123052 0.708901 -0.382912
0.115854 0.707954 -0.3824
0.108529 0.706062 -0.381378
0.10097 0.702276 -0.379333
0.0934855 0.69849 -0.377288
0.0859594 0.693758 -0.374732
0.0785274 0.689025 -0.372176
0.0644798 0.685239 -0.370131
0.0579107 0.688079 -0.371665
0.0514959 0.693758 -0.374732
0.0450292 0.700383 -0.378311
0.038225 0.703222 -0.379844
0.0313224 0.705115 -0.380867
0.0244147 0.707954 -0.3824
0.0174972 0.712687 -0.384957
0.0104579 0.715526 -0.38649
0.00335336 0.716473 -0.387001
-0.0102364 0.673882 -0.363996
-0.017003 0.676721 -0.36553
-0.0238592 0.680507 -0.367575
-0.0309183 0.687132 -0.371153
-0.0381611 0.694704 -0.375243
-0.0455544 0.702276 -0.379333
-0.0530273 0.708901 -0.382912
-0.0599903 0.707954 -0.3824
-0.0663968 0.701329 -0.378822
-0.0726717 0.694704 -0.375243
-0.651144 0.784618 -0.42381
-0.649401 0.77326 -0.417675
-0.650649 0.765689 -0.413585
-0.654188 0.760956 -0.411029
-0.652695 0.750545 -0.405406
-0.650995 0.740134 -0.399782
-0.653297 0.734455 -0.396715
-0.653784 0.726884 -0.392625
-0.652398 0.717419 -0.387513
-0.651695 0.708901 -0.382912
-0.652582 0.702276 -0.379333
-0.651559 0.693758 -0.374732
-0.652164 0.687132 -0.371153
-0.656268 0.684293 -0.36962
-0.663984 0.685239 -0.370131
0.146984 0.694269 -0.367775
0.140716 0.69713 -0.369291
0.135307 0.70476 -0.373333
0.129226 0.709528 -0.375858
0.122394 0.710482 -0.376364
0.115699 0.712389 -0.377374
0.108674 0.712389 -0.377374
0.101514 0.711435 -0.376869
0.0943723 0.710482 -0.376364
0.0871322 0.708574 -0.375353
0.0800376 0.707621 -0.374848
0.0641236 0.68664 -0.363734
0.057831 0.692362 -0.366765
0.0515662 0.699991 -0.370807
0.0449683 0.70476 -0.373333
0.0381221 0.706667 -0.374343
0.0312383 0.708574 -0.375353
0.0243168 0.710482 -0.376364
0.0174275 0.71525 -0.37889
0.0104164 0.718111 -0.380405
0.00334007 0.719065 -0.38091
-0.017217 0.690455 -0.365755
-0.0242242 0.696177 -0.368786
-0.0315146 0.705713 -0.373838
-0.038837 0.712389 -0.377374
-0.0461683 0.717157 -0.3799
-0.0534521 0.720018 -0.381415
-0.0603111 0.717157 -0.3799
-0.0669344 0.712389 -0.377374
-0.648586 0.806802 -0.427387
-0.649557 0.798219 -0.422841
-0.648787 0.787729 -0.417284
-0.647016 0.776285 -0.411221
-0.649041 0.769609 -0.407685
-0.652561 0.764841 -0.405159
-0.651872 0.755304 -0.400107
-0.650995 0.745767 -0.395056
-0.652455 0.739092 -0.391519
-0.653784 0.732416 -0.387983
-0.653259 0.723833 -0.383436
-0.651695 0.714296 -0.378384
-0.652582 0.707621 -0.374848
-0.652448 0.699991 -0.370807
-0.654859 0.695223 -0.368281
-0.658991 0.692362 -0.366765
-0.664901 0.691408 -0.36626
0.141486 0.706239 -0.366869
0.135124 0.709122 -0.368367
0.128531 0.711044 -0.369365
0.12223 0.714887 -0.371361
0.115544 0.716809 -0.37236
0.108674 0.71777 -0.372859
0.101514 0.716809 -0.37236
0.0943723 0.715848 -0.371861
0.0871322 0.713926 -0.370862
0.0800376 0.712966 -0.370363
0.0640345 0.690866 -0.358883
0.0577514 0.696631 -0.361878
0.0514959 0.704318 -0.365871
0.0448467 0.708161 -0.367867
0.0380707 0.711044 -0.369365
0.0311962 0.712966 -0.370363
0.0242515 0.713926 -0.370862
0.0174042 0.719692 -0.373857
0.0104026 0.722574 -0.375355
0.00333564 0.723535 -0.375854
-0.00371529 0.71777 -0.372859
-0.0106102 0.709122 -0.368367
-0.0174548 0.705279 -0.36637
-0.024556 0.711044 -0.369365
-0.0318979 0.719692 -0.373857
-0.039097 0.722574 -0.375355
-0.0461683 0.722574 -0.375355
-0.0531689 0.721613 -0.374855
-0.0599101 0.71777 -0.372859
-0.0664864 0.712966 -0.370363
-0.648203 0.822505 -0.427265
-0.648586 0.812896 -0.422274
-0.648781 0.803287 -0.417282
-0.647216 0.791757 -0.411293
-0.645426 0.780226 -0.405303
-0.646628 0.772539 -0.40131
-0.647679 0.764853 -0.397317
-0.649403 0.758126 -0.393823
-0.650995 0.7514 -0.390329
-0.653297 0.745635 -0.387334
-0.654635 0.738909 -0.38384
-0.65412 0.730261 -0.379348
-0.651695 0.719692 -0.373857
-0.650823 0.711044 -0.369365
-0.651559 0.704318 -0.365871
-0.653961 0.699513 -0.363375
-0.658991 0.697592 -0.362377
-0.664901 0.696631 -0.361878
0.0871322 0.719279 -0.366371
0.0799297 0.717342 -0.365385
0.0513554 0.707662 -0.360454
0.0447249 0.711534 -0.362427
0.0379678 0.714438 -0.363906
0.0311542 0.717342 -0.365385
0.0242189 0.718311 -0.365878
0.0173113 0.721215 -0.367357
0.0103611 0.725087 -0.36933
0.00333121 0.727991 -0.370809
-0.00371529 0.723151 -0.368344
-0.0106821 0.719279 -0.366371
-0.0175975 0.716374 -0.364892
-0.0246888 0.720247 -0.366864
-0.0319404 0.726055 -0.369823
-0.039097 0.727991 -0.370809
-0.046107 0.727023 -0.370316
-0.0529565 0.724119 -0.368837
-0.0595893 0.719279 -0.366371
-0.0663072 0.716374 -0.364892
-0.64838 0.83932 -0.427515
-0.646689 0.826735 -0.421105
-0.647053 0.817054 -0.416174
-0.648781 0.809309 -0.412229
-0.648002 0.798661 -0.406805
-0.646221 0.787044 -0.400888
-0.645824 0.777363 -0.395957
-0.645238 0.767682 -0.391026
-0.64611 0.759938 -0.387081
-0.64933 0.755097 -0.384616
-0.653297 0.751225 -0.382643
-0.653784 0.74348 -0.378699
-0.653259 0.734768 -0.374261
-0.648215 0.721215 -0.367357
-0.647305 0.712502 -0.36292
-0.648893 0.706694 -0.359961
-0.651266 0.701853 -0.357496
-0.65536 0.698949 -0.356016
-0.659398 0.696045 -0.354537
0.0380192 0.72073 -0.359932
0.0311121 0.721705 -0.360419
0.0242189 0.723655 -0.361393
0.0172648 0.724631 -0.36188
0.00331792 0.730482 -0.364803
-0.00371529 0.728532 -0.363828
-0.0107253 0.727557 -0.363341
-0.0176926 0.725606 -0.362367
-0.0247551 0.727557 -0.363341
-0.0319404 0.731458 -0.36529
-0.039097 0.733408 -0.366264
-0.046107 0.732433 -0.365777
-0.0529565 0.729507 -0.364316
-0.0595893 0.724631 -0.36188
-0.647632 0.84459 -0.421788
-0.646689 0.832886 -0.415943
-0.646286 0.822158 -0.410586
-0.648781 0.815332 -0.407176
-0.649573 0.806554 -0.402793
-0.649401 0.796801 -0.397922
-0.649041 0.787048 -0.393052
-0.648493 0.777296 -0.388181
-0.646933 0.766568 -0.382824
-0.648497 0.759741 -0.379414
-0.650771 0.753889 -0.376492
-0.650378 0.745112 -0.372108
-0.648956 0.735359 -0.367238
-0.647345 0.725606 -0.362367
-0.645546 0.715853 -0.357497
-0.647115 0.710002 -0.354574
-0.648571 0.70415 -0.351652
-0.652637 0.701224 -0.350191
-0.657564 0.699274 -0.349217
-0.0201182 0.831178 -0.406933
-0.647056 0.945146 -0.46273
-0.646655 0.87146 -0.426655
-0.647612 0.861635 -0.421844
-0.649128 0.852793 -0.417515
-0.64896 0.841986 -0.412224
-0.648586 0.831178 -0.406933
-0.650333 0.823319 -0.403085
-0.651929 0.815459 -0.399237
-0.651785 0.805634 -0.394427
-0.652258 0.796792 -0.390098
-0.652561 0.787949 -0.385769
-0.651049 0.777142 -0.380478
-0.64933 0.766335 -0.375187
-0.647404 0.755527 -0.369896
-0.646122 0.745703 -0.365085
-0.646374 0.737843 -0.361237
-0.649085 0.73293 -0.358832
-0.649944 0.726053 -0.355465
-0.648893 0.717211 -0.351136
-0.648571 0.709351 -0.347288
-0.652637 0.706403 -0.345845
-0.658481 0.705421 -0.345364
-0.64767 0.890715 -0.427468
-0.646655 0.877849 -0.421293
-0.646873 0.866963 -0.416069
-0.649128 0.859046 -0.412269
-0.649718 0.849149 -0.407519
-0.648586 0.837272 -0.40182
-0.649557 0.828365 -0.397545
-0.651929 0.821438 -0.39422
-0.65099 0.810551 -0.388996
-0.651453 0.801644 -0.384721
-0.652561 0.793726 -0.380921
-0.651872 0.78383 -0.376172
-0.647665 0.769974 -0.369522
-0.643194 0.756118 -0.362873
-0.641866 0.746222 -0.358123
-0.643792 0.740283 -0.355273
-0.648215 0.737314 -0.353848
-0.651703 0.733356 -0.351948
-0.650671 0.724449 -0.347674
-0.648571 0.714552 -0.342924
-0.651729 0.710593 -0.341024
-0.658481 0.710593 -0.341024
-0.64767 0.897198 -0.422028
-0.646655 0.884239 -0.415932
-0.646873 0.873273 -0.410774
-0.649128 0.865298 -0.407022
-0.650475 0.856326 -0.402802
-0.649352 0.844363 -0.397175
-0.648781 0.833398 -0.392017
-0.649573 0.824426 -0.387797
-0.648606 0.81346 -0.382638
-0.649041 0.804488 -0.378418
-0.65012 0.796513 -0.374667
-0.649403 0.786544 -0.369978
-0.646832 0.774581 -0.364351
-0.64151 0.759628 -0.357317
-0.641014 0.750656 -0.353096
-0.643792 0.745672 -0.350752
-0.649085 0.743678 -0.349814
-0.651703 0.738693 -0.34747
-0.650671 0.729721 -0.343249
-0.647673 0.718756 -0.338091
-0.651729 0.715765 -0.336684
-0.658481 0.715765 -0.336684
-0.647019 0.914727 -0.421679
-0.64695 0.902678 -0.416125
-0.646655 0.890628 -0.41057
-0.647612 0.880587 -0.405942
-0.652119 0.875567 -0.403627
-0.655018 0.868538 -0.400387
-0.653186 0.855485 -0.39437
-0.651109 0.842432 -0.388352
-0.649573 0.830383 -0.382798
-0.648606 0.819338 -0.377706
-0.648236 0.809297 -0.373078
-0.648493 0.80026 -0.368912
-0.648579 0.791223 -0.364746
-0.647665 0.781183 -0.360117
-0.64572 0.770137 -0.355025
-0.644419 0.760097 -0.350397
-0.646374 0.754072 -0.347619
-0.649955 0.750056 -0.345768
-0.652582 0.745035 -0.343453
-0.650671 0.734994 -0.338825
-0.648571 0.724953 -0.334196
-0.651729 0.720937 -0.332344
-0.657564 0.719933 -0.331882
-0.647563 0.934436 -0.422112
-0.647019 0.921289 -0.416173
-0.64767 0.910165 -0.411148
-0.648113 0.89904 -0.406123
-0.649827 0.889939 -0.402011
-0.655111 0.885894 -0.400184
-0.658804 0.879826 -0.397443
-0.655486 0.864656 -0.39059
-0.651109 0.848476 -0.383281
-0.649573 0.83634 -0.377799
-0.649401 0.826227 -0.373231
-0.649041 0.816114 -0.368663
-0.648493 0.806001 -0.364094
-0.647756 0.795888 -0.359526
-0.648497 0.787798 -0.355871
-0.649929 0.780719 -0.352673
-0.648676 0.770606 -0.348105
-0.648956 0.762516 -0.34445
-0.649955 0.755437 -0.341253
-0.652582 0.75038 -0.338969
-0.651559 0.741279 -0.334857
-0.650368 0.732177 -0.330746
-0.652637 0.72712 -0.328461
-0.658481 0.726109 -0.328005
-0.646554 0.965536 -0.427346
-0.648554 0.955351 -0.422838
-0.649666 0.944147 -0.417879
-0.64986 0.931925 -0.41247
-0.649109 0.918685 -0.406609
-0.648842 0.906463 -0.4012
-0.650565 0.897296 -0.397143
-0.655111 0.892204 -0.394889
-0.65729 0.884056 -0.391283
-0.653952 0.868778 -0.384521
-0.649557 0.852482 -0.377308
-0.648002 0.84026 -0.371899
-0.648606 0.831094 -0.367842
-0.649845 0.822946 -0.364235
-0.65012 0.813779 -0.360178
-0.648579 0.802576 -0.35522
-0.64933 0.794428 -0.351613
-0.649929 0.78628 -0.348007
-0.650378 0.778132 -0.344401
-0.649816 0.768966 -0.340344
-0.650825 0.761836 -0.337188
-0.653462 0.756744 -0.334934
-0.652448 0.747577 -0.330877
-0.652164 0.739429 -0.327271
-0.654453 0.734337 -0.325017
-0.661232 0.734337 -0.325017
-0.647236 0.97339 -0.42206
-0.649246 0.963133 -0.417613
-0.650367 0.95185 -0.412721
-0.64915 0.937491 -0.406494
-0.649109 0.925182 -0.401157
-0.648113 0.911848 -0.395376
-0.64835 0.900565 -0.390484
-0.651371 0.893385 -0.38737
-0.652746 0.884154 -0.383368
-0.650886 0.87082 -0.377586
-0.648781 0.857486 -0.371804
-0.648002 0.846203 -0.366912
-0.649401 0.837998 -0.363354
-0.651453 0.830818 -0.360241
-0.652561 0.822612 -0.356683
-0.650226 0.810304 -0.351346
-0.650162 0.801072 -0.347344
-0.651613 0.793893 -0.34423
-0.65123 0.784661 -0.340228
-0.650677 0.77543 -0.336225
-0.651695 0.76825 -0.333112
-0.654341 0.763121 -0.330888
-0.653337 0.75389 -0.326885
-0.653062 0.745685 -0.323327
-0.654453 0.73953 -0.320659
-0.661232 0.73953 -0.320659
-0.649074 0.996753 -0.423343
-0.646554 0.979193 -0.415885
-0.647172 0.966798 -0.410621
-0.647563 0.954404 -0.405357
-0.648439 0.943042 -0.400531
-0.649828 0.932713 -0.396144
-0.648113 0.918252 -0.390002
-0.647612 0.905857 -0.384738
-0.649876 0.897594 -0.381228
-0.651232 0.888298 -0.37728
-0.650119 0.875903 -0.372016
-0.648781 0.863508 -0.366751
-0.649573 0.854212 -0.362803
-0.65099 0.845949 -0.359293
-0.653062 0.838718 -0.356223
-0.653375 0.829422 -0.352274
-0.651872 0.81806 -0.347449
-0.651827 0.808764 -0.3435
-0.654139 0.802567 -0.340868
-0.653784 0.79327 -0.33692
-0.652398 0.782941 -0.332533
-0.652566 0.774678 -0.329023
-0.653462 0.767448 -0.325952
-0.652448 0.758152 -0.322004
-0.652164 0.749889 -0.318495
-0.653545 0.743691 -0.315862
-0.659398 0.742658 -0.315424
-0.649948 1.01931 -0.424
-0.647056 1.00058 -0.416212
-0.643144 0.980822 -0.407992
-0.643023 0.9673 -0.402368
-0.645461 0.957939 -0.398474
-0.648439 0.949618 -0.395012
-0.651268 0.941298 -0.391551
-0.6503 0.927776 -0.385927
-0.649089 0.914255 -0.380302
-0.649876 0.903854 -0.375976
-0.64896 0.891372 -0.370784
-0.647819 0.878891 -0.365592
-0.649557 0.87057 -0.362131
-0.652715 0.86433 -0.359535
-0.654965 0.857049 -0.356506
-0.654671 0.846648 -0.35218
-0.651747 0.833126 -0.346555
-0.649403 0.820645 -0.341363
-0.650995 0.813364 -0.338335
-0.653297 0.807124 -0.335739
-0.653784 0.798803 -0.332278
-0.653259 0.789442 -0.328384
-0.652566 0.780081 -0.32449
-0.648185 0.766559 -0.318865
-0.646226 0.756158 -0.314539
-0.648571 0.750958 -0.312376
-0.652637 0.747838 -0.311078
-0.658481 0.746797 -0.310645
-0.651848 1.04417 -0.425329
-0.649948 1.02636 -0.418077
-0.646384 1.00647 -0.409971
-0.642462 0.986567 -0.401866
-0.643023 0.974 -0.396746
-0.64476 0.963526 -0.39248
-0.648439 0.956195 -0.389494
-0.651268 0.947817 -0.386081
-0.6503 0.934202 -0.380535
-0.649827 0.921634 -0.375416
-0.647632 0.906972 -0.369443
-0.645931 0.893356 -0.363897
-0.644753 0.880789 -0.358778
-0.649557 0.876599 -0.357072
-0.655071 0.873458 -0.355792
-0.659734 0.869268 -0.354085
-0.657888 0.856701 -0.348966
-0.650934 0.837849 -0.341287
-0.647756 0.824234 -0.335741
-0.64933 0.816903 -0.332755
-0.651613 0.810619 -0.330195
-0.652081 0.80224 -0.326782
-0.652398 0.793862 -0.32337
-0.648215 0.780247 -0.317824
-0.642908 0.765584 -0.311851
-0.642671 0.757206 -0.308438
-0.646774 0.754064 -0.307158
-0.652637 0.753017 -0.306732
-0.659398 0.753017 -0.306732
-0.654463 1.05557 -0.420985
-0.651938 1.03659 -0.413415
-0.649074 1.01761 -0.405845
-0.646554 0.99968 -0.398695
-0.644406 0.982808 -0.391966
-0.644059 0.969099 -0.386499
-0.646309 0.959608 -0.382714
-0.648389 0.950118 -0.378929
-0.647384 0.936409 -0.373461
-0.646873 0.923755 -0.368415
-0.646884 0.912155 -0.363788
-0.645931 0.899501 -0.358742
-0.645519 0.887901 -0.354115
-0.650333 0.883683 -0.352433
-0.655071 0.879465 -0.350751
-0.658144 0.873138 -0.348227
-0.656279 0.860484 -0.343181
-0.652561 0.845721 -0.337293
-0.650226 0.833067 -0.332246
-0.64933 0.822521 -0.32804
-0.649087 0.813031 -0.324255
-0.649527 0.804595 -0.320891
-0.649816 0.796159 -0.317526
-0.647345 0.784559 -0.3129
-0.643787 0.771905 -0.307853
-0.644448 0.764523 -0.304909
-0.647673 0.760305 -0.303227
-0.653545 0.759251 -0.302806
-0.659398 0.758196 -0.302386
-0.65536 1.07977 -0.421567
-0.655117 1.06384 -0.415349
-0.654591 1.04792 -0.409131
-0.651765 1.0288 -0.40167
-0.649282 1.01076 -0.394623
-0.645789 0.991645 -0.387162
-0.644059 0.975719 -0.380944
-0.645599 0.965102 -0.376799
-0.64695 0.954485 -0.372654
-0.646655 0.941744 -0.367679
-0.647612 0.931127 -0.363534
-0.64838 0.92051 -0.359389
-0.64896 0.909892 -0.355244
-0.649352 0.899275 -0.351099
-0.651885 0.891843 -0.348197
-0.6535 0.883349 -0.344881
-0.653375 0.872732 -0.340736
-0.653866 0.863177 -0.337005
-0.654188 0.853621 -0.333274
-0.651872 0.840881 -0.3283
-0.64933 0.82814 -0.323326
-0.647404 0.816461 -0.318766
-0.646122 0.805844 -0.314621
-0.646374 0.79735 -0.311305
-0.646475 0.788857 -0.307988
-0.645546 0.779301 -0.304258
-0.646226 0.771869 -0.301356
-0.647673 0.765499 -0.298869
-0.650822 0.761252 -0.297211
-0.65573 0.759128 -0.296382
-0.649997 1.11061 -0.424406
-0.650877 1.09564 -0.418688
-0.65085 1.07961 -0.41256
-0.652501 1.06678 -0.407659
-0.651275 1.04968 -0.401123
-0.649074 1.03151 -0.394179
-0.6486 1.01654 -0.38846
-0.647172 1.00051 -0.382333
-0.645461 0.984477 -0.376206
-0.645599 0.97165 -0.371304
-0.64767 0.962029 -0.367628
-0.648842 0.95134 -0.363543
-0.649827 0.940651 -0.359459
-0.649876 0.928893 -0.354965
-0.649718 0.917135 -0.350472
-0.650886 0.907514 -0.346796
-0.652661 0.898963 -0.343528
-0.6535 0.889343 -0.339852
-0.653375 0.878654 -0.335767
-0.653062 0.867964 -0.331682
-0.654188 0.859413 -0.328414
-0.654341 0.849793 -0.324738
-0.654324 0.840172 -0.321062
-0.650771 0.826276 -0.315752
-0.646122 0.811311 -0.310033
-0.643792 0.799553 -0.30554
-0.645605 0.79314 -0.303089
-0.646426 0.785657 -0.30023
-0.647115 0.778175 -0.29737
-0.648571 0.771761 -0.294919
-0.650822 0.766417 -0.292877
-0.656647 0.765348 -0.292469
-0.648238 1.13208 -0.423358
-0.648746 1.11594 -0.417321
-0.648972 1.0998 -0.411285
-0.648916 1.08366 -0.405248
-0.645963 1.06321 -0.397602
-0.640663 1.03954 -0.388749
-0.641003 1.02555 -0.383517
-0.645872 1.01909 -0.381102
-0.64648 1.00618 -0.376273
-0.645461 0.991111 -0.370639
-0.645599 0.978198 -0.36581
-0.64767 0.968512 -0.362188
-0.648113 0.956675 -0.357761
-0.649089 0.945914 -0.353737
-0.649876 0.935153 -0.349713
-0.648203 0.921163 -0.344481
-0.650119 0.912554 -0.341262
-0.651109 0.902869 -0.33764
-0.652715 0.89426 -0.33442
-0.653375 0.884575 -0.330799
-0.653866 0.87489 -0.327177
-0.656629 0.868433 -0.324762
-0.660926 0.864128 -0.323152
-0.662649 0.856596 -0.320335
-0.65919 0.842606 -0.315104
-0.650378 0.822159 -0.307458
-0.645513 0.807094 -0.301823
-0.645605 0.798485 -0.298604
-0.648185 0.793104 -0.296592
-0.649782 0.786647 -0.294177
-0.652164 0.781267 -0.292165
-0.653545 0.77481 -0.289751
-0.659398 0.773734 -0.289348
