ply
format ascii 1.0
element vertex 28
property float x
property float y
property float z
end_header
0.159966 0.433334 -0.721183
-6.82928 5.72986 -4.34951
-6.93063 5.75927 -4.37183
-6.70759 5.67739 -4.23036
-6.89033 5.77627 -4.30404
-6.22587 2.34477 -6.30095
-6.04754 2.29961 -6.17959
-5.94672 2.19606 -6.055
-5.75353 2.14524 -5.91489
-5.93197 2.14714 -6.07647
-5.78176 2.11299 -5.97981
0.647638 0.693302 -0.270682
0.644444 0.696487 -0.271925
0.64314 0.701796 -0.273998
0.646646 0.696937 -0.266326
0.641497 0.698006 -0.266735
0.640222 0.70335 -0.268777
0.638852 0.708695 -0.270819
0.636434 0.712971 -0.272453
0.632996 0.716177 -0.273679
0.628567 0.718315 -0.274496
0.638276 0.705938 -0.263995
0.635961 0.710242 -0.265605
0.63548 0.716699 -0.268019
0.632996 0.721004 -0.269629
0.629502 0.724232 -0.270836
0.626878 0.728537 -0.272446
0.623261 0.731765 -0.273653
