ply
format ascii 1.0
element vertex 547
property float x
property float y
property float z
end_header
-1.10347 1.29024 -0.472097
-1.10878 1.30974 -0.479232
-1.10921 1.32383 -0.484385
-1.10221 1.32924 -0.486367
-1.09778 1.33791 -0.489538
-1.09409 1.34766 -0.493105
-1.09022 1.35741 -0.496673
-1.26191 1.78316 -0.652453
-1.26839 1.81458 -0.663948
-1.25114 1.81241 -0.663155
-1.22212 1.79291 -0.65602
-1.09408 1.25799 -0.470442
-1.09328 1.26983 -0.474869
-1.10053 1.29135 -0.482918
-1.10558 1.31072 -0.490161
-1.10221 1.32041 -0.493783
-1.09778 1.32901 -0.497003
-1.09497 1.33978 -0.501027
-1.09283 1.35161 -0.505454
-1.24887 1.75301 -0.655561
-1.25021 1.77668 -0.664414
-1.23319 1.77453 -0.663609
-1.2044 1.75516 -0.656365
-1.09127 1.24636 -0.476283
-1.08772 1.25491 -0.47955
-1.09502 1.27629 -0.48772
-1.10286 1.29874 -0.496298
-1.10401 1.3137 -0.502017
-1.10045 1.32332 -0.505693
-1.09848 1.33508 -0.510186
-1.10414 1.35646 -0.518356
-1.19463 1.48366 -0.566964
-1.30105 1.70921 -0.653153
-1.28682 1.71027 -0.653561
-1.22587 1.70921 -0.653153
-1.22068 1.7231 -0.658463
-1.20478 1.72203 -0.658054
-1.09408 1.24115 -0.484574
-1.0905 1.24964 -0.48789
-1.09777 1.27088 -0.496181
-1.10467 1.29211 -0.504471
-1.1058 1.30697 -0.510274
-1.10312 1.31759 -0.514419
-1.102 1.33033 -0.519394
-1.10414 1.34732 -0.526026
-1.14987 1.41846 -0.553799
-1.31781 1.6807 -0.656185
-1.30374 1.68176 -0.6566
-1.28966 1.68282 -0.657014
-1.27476 1.68282 -0.657014
-1.25826 1.6807 -0.656185
-1.24024 1.67645 -0.654527
-1.22151 1.67114 -0.652455
-1.20747 1.67221 -0.652869
-1.19569 1.67645 -0.654527
-1.18159 1.67751 -0.654942
-1.09595 1.23484 -0.492481
-1.09421 1.24538 -0.496687
-1.10053 1.26542 -0.504677
-1.10467 1.28334 -0.511827
-1.10311 1.29494 -0.516453
-1.10134 1.30654 -0.521079
-1.102 1.32131 -0.526967
-1.11197 1.34767 -0.537481
-1.31164 1.64293 -0.65524
-1.31031 1.65981 -0.661969
-1.29634 1.66086 -0.662389
-1.27664 1.65453 -0.659866
-1.25867 1.65032 -0.658183
-1.24157 1.64715 -0.656922
-1.22688 1.64715 -0.656922
-1.21142 1.6461 -0.656501
-1.19291 1.64082 -0.654398
-1.09876 1.22954 -0.500839
-1.09421 1.23687 -0.503825
-1.09686 1.25258 -0.510224
-1.10104 1.27039 -0.517477
-1.10041 1.28296 -0.522596
-1.10045 1.29657 -0.528142
-1.10376 1.31438 -0.535394
-1.1198 1.34789 -0.549046
-1.29397 1.60972 -0.655698
-1.292 1.62543 -0.662097
-1.27741 1.62543 -0.662097
-1.25712 1.6181 -0.659111
-1.23615 1.60972 -0.655698
-1.22091 1.60867 -0.655271
-1.20882 1.61181 -0.656551
-1.19357 1.61076 -0.656125
-1.09876 1.22109 -0.507935
-1.09143 1.22525 -0.509666
-1.09044 1.23669 -0.514425
-1.09469 1.25437 -0.52178
-1.09772 1.27101 -0.528702
-1.09956 1.28661 -0.535192
-1.10728 1.3095 -0.544711
-1.12763 1.34798 -0.560719
-1.26286 1.57784 -0.656335
-1.24942 1.57888 -0.656768
-1.23026 1.57264 -0.654172
-1.09421 1.21986 -0.518102
-1.09044 1.22812 -0.521612
-1.09378 1.24465 -0.528631
-1.09592 1.26014 -0.535211
-1.10045 1.27874 -0.543108
-1.11256 1.30662 -0.554953
-1.11186 1.21853 -0.528354
-1.1044 1.22264 -0.530133
-1.10236 1.23289 -0.53458
-1.10467 1.24828 -0.541251
-1.1085 1.26571 -0.548812
-1.11645 1.28828 -0.558596
-1.11935 1.21812 -0.539141
-1.11274 1.22322 -0.541395
-1.11153 1.23442 -0.546353
-1.11556 1.25173 -0.554017
-1.12647 1.2772 -0.565286
-1.12777 1.21861 -0.550481
-1.1183 1.22063 -0.551395
-1.1152 1.22973 -0.555506
-1.12192 1.24996 -0.564643
-1.21563 1.44413 -0.652354
-1.20978 1.45323 -0.656466
-1.19377 1.4502 -0.655095
-1.17534 1.44413 -0.652354
-1.13713 1.21997 -0.562393
-1.12941 1.22399 -0.564245
-1.20882 1.42581 -0.657283
-1.19799 1.42882 -0.658672
-1.18128 1.4248 -0.65682
-1.16218 1.41778 -0.65358
-1.21029 1.38667 -0.652267
-1.20324 1.39365 -0.65555
-1.19264 1.39664 -0.656956
-1.17694 1.39365 -0.65555
-1.15797 1.38667 -0.652267
-1.21018 1.3618 -0.653551
-1.19985 1.36477 -0.654976
-1.18688 1.36477 -0.654976
-1.16966 1.35983 -0.652601
-1.20979 1.33716 -0.654653
-1.2005 1.34109 -0.656577
-1.18419 1.33716 -0.654653
-1.20911 1.31272 -0.655573
-1.20445 1.3215 -0.659957
-1.18819 1.3176 -0.658008
-1.16592 1.30687 -0.652651
-1.20997 1.29044 -0.657299
-1.20641 1.30012 -0.66223
-1.19378 1.30012 -0.66223
-1.17236 1.29044 -0.657299
-1.25254 1.27315 -0.661363
-1.23915 1.27219 -0.660864
-1.22577 1.27123 -0.660364
-1.21425 1.27219 -0.660864
-1.20452 1.27507 -0.662361
-1.19204 1.27507 -0.662361
-1.17601 1.27123 -0.660364
-1.15565 1.26258 -0.655872
-1.23166 1.25503 -0.664825
-1.2165 1.25216 -0.663309
-1.20324 1.25121 -0.662804
-1.18909 1.2493 -0.661794
-1.17318 1.24549 -0.659773
-1.15645 1.24072 -0.657247
-1.13718 1.23309 -0.653206
-1.20075 1.22662 -0.662555
-1.18857 1.22662 -0.662555
-1.17275 1.22283 -0.66051
-1.15252 1.21431 -0.655909
-1.13423 1.20769 -0.65233
-1.19142 1.19568 -0.658491
-1.18408 1.20037 -0.661077
-1.17206 1.20037 -0.661077
-1.15369 1.1938 -0.657456
-1.17363 1.1688 -0.656242
-1.16277 1.16973 -0.656766
-1.14913 1.16787 -0.655719
-1.1319 1.16227 -0.652579
-1.15679 1.14312 -0.654293
-1.14424 1.14219 -0.653764
-1.14649 1.12412 -0.655875
-1.13219 1.12137 -0.654269
-1.13339 1.10255 -0.655699
-1.11922 1.09982 -0.654075
0.221025 0.952327 -0.566359
0.228433 0.942312 -0.560403
0.236095 0.934118 -0.55553
0.245982 0.935028 -0.556072
0.259124 0.947774 -0.563652
-1.13627 1.0857 -0.658091
-1.12309 1.08389 -0.656996
-1.10718 1.07937 -0.654259
0.207151 0.926727 -0.561732
0.211939 0.905952 -0.549139
0.219163 0.89692 -0.543664
0.22758 0.893307 -0.541474
0.23712 0.89421 -0.542022
0.249416 0.905049 -0.548592
0.265297 0.92763 -0.562279
-1.13249 1.07345 -0.663142
-1.11748 1.06987 -0.660928
-1.09791 1.06181 -0.655946
-1.08127 1.05643 -0.652625
0.203315 0.902311 -0.557416
0.209826 0.889767 -0.549666
0.217618 0.883495 -0.545792
0.22597 0.87991 -0.543577
0.234485 0.877222 -0.541917
0.245931 0.885287 -0.546899
0.259613 0.900519 -0.556309
-1.12871 1.06127 -0.668145
-1.11186 1.05594 -0.664788
-1.09143 1.04705 -0.659192
-1.0721 1.03905 -0.654156
0.203315 0.895058 -0.563503
0.209826 0.882614 -0.555669
0.217398 0.875503 -0.551192
0.225279 0.87017 -0.547834
0.233527 0.866615 -0.545596
0.244189 0.871948 -0.548954
0.257547 0.886169 -0.557907
-1.10438 1.04033 -0.667443
-1.07846 1.02622 -0.658393
-1.05926 1.01829 -0.653303
0.210037 0.876342 -0.562236
0.217398 0.868408 -0.557146
0.225509 0.864 -0.554317
0.234246 0.862236 -0.553186
0.244189 0.864881 -0.554883
0.256514 0.875461 -0.561671
-1.05715 0.997723 -0.652281
0.21828 0.86481 -0.565386
0.22712 0.863061 -0.564243
0.236162 0.862187 -0.563671
0.245185 0.861312 -0.563099
0.256255 0.867433 -0.567101
-1.07199 0.983434 -0.655133
-1.05852 0.980832 -0.6534
-1.06537 0.969245 -0.657901
-1.04916 0.964085 -0.654399
-1.05119 0.948334 -0.655866
-1.03793 0.945776 -0.654097
-1.01999 0.896874 -0.655968
-1.00423 0.891886 -0.652321
-1.01432 0.884157 -0.658806
-0.998617 0.879213 -0.655122
-0.187523 0.669916 -0.49917
-0.189613 0.706172 -0.526185
-0.188122 0.731716 -0.545219
-0.18544 0.754788 -0.56241
-0.162927 0.69546 -0.518203
-0.1504 0.67486 -0.502854
-0.988322 0.862542 -0.654751
-0.187523 0.66406 -0.504084
-0.180763 0.667327 -0.506564
-0.17414 0.671411 -0.509664
-0.166815 0.673044 -0.510904
-0.158873 0.672228 -0.510284
-0.150033 0.667327 -0.506564
-0.140782 0.659976 -0.500984
-0.979899 0.847649 -0.655499
-0.193487 0.652536 -0.504616
-0.186831 0.655774 -0.50712
-0.180542 0.660632 -0.510876
-0.173504 0.663061 -0.512755
-0.166208 0.66468 -0.514007
-0.158101 0.663061 -0.512755
-0.148931 0.656584 -0.507746
-0.140085 0.650917 -0.503363
-0.136975 0.672776 -0.520267
-0.194928 0.651544 -0.51328
-0.18637 0.648335 -0.510752
-0.178993 0.649137 -0.511384
-0.172021 0.651544 -0.51328
-0.165195 0.654754 -0.515809
-0.156943 0.652347 -0.513912
-0.147829 0.645928 -0.508855
-0.139736 0.64352 -0.506959
-0.133514 0.64994 -0.512016
-0.207411 0.687045 -0.551373
-0.188446 0.649671 -0.521379
-0.177887 0.639334 -0.513083
-0.169903 0.637743 -0.511807
-0.162766 0.639334 -0.513083
-0.154627 0.636948 -0.511168
-0.146176 0.632972 -0.507978
-0.139214 0.635358 -0.509892
-0.134008 0.64649 -0.518826
-0.188446 0.643786 -0.526317
-0.177444 0.631966 -0.516654
-0.168632 0.627238 -0.512789
-0.160944 0.62645 -0.512145
-0.153082 0.624874 -0.510856
-0.145442 0.624086 -0.510212
-0.138865 0.628026 -0.513433
-0.133349 0.637482 -0.521164
-0.133513 0.676881 -0.553374
-0.186831 0.632435 -0.526704
-0.177887 0.627751 -0.522802
-0.169267 0.623847 -0.519551
-0.161146 0.621504 -0.5176
-0.153661 0.621504 -0.5176
-0.14636 0.622285 -0.518251
-0.139736 0.626189 -0.521502
-0.133678 0.633216 -0.527354
-0.130715 0.65664 -0.546862
-0.190983 0.640525 -0.543413
-0.179435 0.627374 -0.532256
-0.171174 0.625053 -0.530287
-0.162766 0.621959 -0.527662
-0.155013 0.621185 -0.527006
-0.147829 0.622733 -0.528318
-0.14113 0.626601 -0.5316
-0.135327 0.63511 -0.538819
-0.131337 0.653676 -0.55457
-0.194904 0.647589 -0.559678
-0.181869 0.629962 -0.544444
-0.172233 0.623065 -0.538483
-0.163576 0.619233 -0.535171
-0.155978 0.619233 -0.535171
-0.148931 0.621532 -0.537158
-0.142698 0.627663 -0.542457
-0.136645 0.635327 -0.54908
-0.131648 0.649122 -0.561002
-0.185409 0.636188 -0.560106
-0.173504 0.621764 -0.547407
-0.16479 0.617968 -0.544065
-0.157329 0.618727 -0.544734
-0.150584 0.622523 -0.548075
-0.143918 0.627078 -0.552086
-0.13714 0.631633 -0.556096
-0.131181 0.640743 -0.564117
-0.909706 0.730915 -0.655545
-0.174987 0.621128 -0.557078
-0.166005 0.616616 -0.553032
-0.158873 0.618872 -0.555055
-0.151869 0.62188 -0.557753
-0.144615 0.624136 -0.559776
-0.137305 0.626391 -0.561799
-0.130715 0.632407 -0.567195
-0.899411 0.715721 -0.653935
-0.17647 0.620391 -0.566834
-0.167017 0.614433 -0.561391
-0.159453 0.615178 -0.562071
-0.152604 0.618901 -0.565474
-0.145138 0.620391 -0.566834
-0.183885 0.6277 -0.606391
-0.860103 0.651341 -0.653129
0.0458811 0.518103 -0.549537
0.052339 0.511919 -0.542977
0.0589462 0.508483 -0.539333
0.0659048 0.508483 -0.539333
0.0732571 0.511232 -0.542249
0.0810084 0.516042 -0.54735
-0.475617 0.509272 -0.55042
-0.444175 0.482755 -0.52176
-0.437499 0.482755 -0.52176
-0.429609 0.481395 -0.52029
-0.421756 0.480035 -0.51882
0.0382765 0.505873 -0.546746
0.0447858 0.500433 -0.540867
0.0513554 0.497033 -0.537192
0.0579107 0.494314 -0.534253
0.064836 0.494994 -0.534988
0.0718787 0.496353 -0.536457
0.0793904 0.500433 -0.540867
0.0885394 0.513352 -0.554829
-0.45832 0.471586 -0.519383
-0.453017 0.472931 -0.520865
-0.447677 0.474277 -0.522347
-0.442298 0.475622 -0.523829
-0.43565 0.475622 -0.523829
-0.427788 0.474277 -0.522347
-0.419964 0.472931 -0.520865
-0.429229 0.491095 -0.54087
0.0314485 0.503204 -0.554206
0.0378134 0.494459 -0.544574
0.0443598 0.490422 -0.540129
0.0509339 0.487731 -0.537165
0.0575124 0.485713 -0.534942
0.0643907 0.486386 -0.535683
0.0715833 0.489077 -0.538647
0.0786353 0.490422 -0.540129
0.0863113 0.495131 -0.545315
-0.463585 0.465205 -0.522126
-0.457013 0.465205 -0.522126
-0.451728 0.466536 -0.52362
-0.445772 0.467202 -0.524367
-0.43917 0.467202 -0.524367
-0.431953 0.466536 -0.52362
-0.424148 0.465205 -0.522126
-0.416977 0.464539 -0.521379
-0.40865 0.462543 -0.519139
-0.400957 0.461212 -0.517645
0.0313644 0.496485 -0.557234
0.0377105 0.487833 -0.547523
0.0442381 0.48384 -0.543041
0.0507934 0.481178 -0.540053
0.0573531 0.479181 -0.537813
0.0642126 0.479847 -0.538559
0.0712879 0.481843 -0.5408
0.0783117 0.483174 -0.542294
0.0854904 0.485171 -0.544535
0.0946256 0.49715 -0.557981
-0.470831 0.460828 -0.527104
-0.462922 0.459511 -0.525598
-0.455051 0.458195 -0.524092
-0.447862 0.457537 -0.523339
-0.441327 0.457537 -0.523339
-0.43354 0.45622 -0.521833
-0.427023 0.45622 -0.521833
-0.419293 0.454903 -0.520327
-0.412795 0.454903 -0.520327
-0.406298 0.454903 -0.520327
-0.400379 0.455562 -0.52108
-0.39501 0.456878 -0.522586
0.0316167 0.495061 -0.566261
0.037762 0.483211 -0.552707
0.0442381 0.478603 -0.547436
0.0507934 0.47597 -0.544424
0.0573531 0.473995 -0.542165
0.0643017 0.475311 -0.543671
0.0713863 0.477286 -0.54593
0.0783117 0.477945 -0.546683
0.0856076 0.480578 -0.549695
0.095259 0.495061 -0.566261
-0.80582 0.560616 -0.653543
-0.472849 0.457739 -0.533613
-0.461596 0.453181 -0.528299
-0.452436 0.450577 -0.525263
-0.44464 0.449275 -0.523745
-0.437516 0.448623 -0.522986
-0.429786 0.447321 -0.521468
-0.42271 0.44667 -0.520709
-0.415652 0.446019 -0.51995
-0.409809 0.44667 -0.520709
-0.40571 0.449275 -0.523745
-0.400379 0.450577 -0.525263
-0.396148 0.453181 -0.528299
-0.392962 0.457088 -0.532854
0.0378134 0.478575 -0.557902
0.044299 0.474017 -0.552589
0.0508637 0.471413 -0.549553
0.0575124 0.47011 -0.548035
0.0643907 0.470762 -0.548794
0.0713863 0.472064 -0.550312
0.0784196 0.473366 -0.55183
0.086194 0.478575 -0.557902
-0.477557 0.457183 -0.543218
-0.459606 0.446236 -0.530211
-0.449821 0.443016 -0.526385
-0.442707 0.442372 -0.52562
-0.436246 0.442372 -0.52562
-0.429161 0.441729 -0.524855
-0.421478 0.440441 -0.523325
-0.413225 0.438509 -0.52103
-0.408016 0.439797 -0.52256
-0.403946 0.442372 -0.52562
-0.400379 0.445592 -0.529446
-0.397286 0.449455 -0.534036
-0.394082 0.453319 -0.538627
-0.40067 0.468773 -0.556989
0.0381736 0.477788 -0.567701
0.0446032 0.471993 -0.560815
0.0511447 0.468773 -0.556989
0.0577514 0.466841 -0.554694
0.0645689 0.466841 -0.554694
0.0714848 0.467485 -0.555459
0.0785274 0.468773 -0.556989
0.0865458 0.475212 -0.56464
-0.45629 0.43806 -0.530544
-0.447205 0.435513 -0.527459
-0.440773 0.435513 -0.527459
-0.433706 0.434877 -0.526688
-0.426033 0.433603 -0.525146
-0.418397 0.43233 -0.523604
-0.411405 0.431693 -0.522833
-0.406822 0.433603 -0.525146
-0.403946 0.437424 -0.529773
-0.400379 0.440607 -0.533629
-0.396717 0.443791 -0.537484
-0.394641 0.448885 -0.543653
-0.394066 0.455888 -0.552136
0.0322473 0.488361 -0.591464
0.0583886 0.466713 -0.565245
0.0650142 0.464802 -0.562932
0.0718787 0.464802 -0.562932
0.0789589 0.466076 -0.564474
-0.459606 0.436252 -0.538588
-0.447859 0.431216 -0.532371
-0.442062 0.431845 -0.533148
-0.434341 0.430586 -0.531594
-0.424782 0.427439 -0.527708
-0.417164 0.42618 -0.526154
-0.411405 0.426809 -0.526931
-0.407419 0.429327 -0.530039
-0.403946 0.432475 -0.533925
-0.3998 0.434993 -0.537034
-0.396148 0.438141 -0.54092
-0.394641 0.443806 -0.547915
-0.392965 0.449472 -0.554909
-0.392743 0.457026 -0.564236
0.0458811 0.474652 -0.585997
-0.468127 0.445573 -0.560791
-0.449795 0.434372 -0.546693
-0.437516 0.428771 -0.539644
-0.427284 0.425037 -0.534945
-0.419629 0.423792 -0.533378
-0.413832 0.424415 -0.534162
-0.409211 0.426282 -0.536511
-0.404534 0.428148 -0.538861
-0.400379 0.430638 -0.541994
-0.396717 0.433749 -0.54591
-0.394641 0.438728 -0.552176
-0.392965 0.444328 -0.559225
-0.391661 0.450552 -0.567057
-0.460106 0.439185 -0.563541
-0.440057 0.426268 -0.546966
-0.429161 0.421962 -0.541441
-0.42271 0.421962 -0.541441
-0.416866 0.422577 -0.54223
-0.411601 0.423808 -0.543809
-0.406886 0.425653 -0.546177
-0.402693 0.428113 -0.549334
-0.398425 0.430574 -0.552491
-0.394641 0.433649 -0.556437
-0.391864 0.437955 -0.561962
-0.445772 0.426747 -0.558313
-0.432914 0.420668 -0.550359
-0.425791 0.42006 -0.549564
-0.419293 0.42006 -0.549564
-0.414588 0.421884 -0.55195
-0.409826 0.423708 -0.554336
-0.405007 0.425531 -0.556722
-0.399563 0.426747 -0.558313
-0.395201 0.429179 -0.561494
-0.391864 0.432826 -0.566266
-0.441673 0.424093 -0.565761
-0.430721 0.419888 -0.560152
-0.423541 0.419288 -0.55935
-0.417575 0.419888 -0.560152
-0.41159 0.420489 -0.560953
-0.406164 0.42169 -0.562556
-0.401271 0.423492 -0.56496
-0.419964 0.417227 -0.567606
-0.413354 0.417227 -0.567606
