ply
format ascii 1.0
element vertex 191
property float x
property float y
property float z
end_header
0.403785 0.499733 0
0.402636 0.510633 0
0.40073 0.52086 0
0.399289 0.531983 0
0.397698 0.543221 0
0.393644 0.551336 0
0.389515 0.559509 0
0.388666 0.572683 0
0.385429 0.582677 0
0.38262 0.593596 0
0.380211 0.60546 0
0.376608 0.615735 0
0.373404 0.626956 0
0.370069 0.638278 0
0.367095 0.650575 0
0.363487 0.662106 0
0.359747 0.673737 0
0.356341 0.686366 0
0.35324 0.700013 0
0.350863 0.715611 0
0.347841 0.730449 0
0.344205 0.744507 0
0.338726 0.754966 0
0.335606 0.771132 0
0.331879 0.786511 0
0.327964 0.802034 0
0.325384 0.821544 0
0.320314 0.835447 0
0.315092 0.849466 0
0.310073 0.864583 0
0.301798 0.864583 0
0.293523 0.864583 0
0.284924 0.8636 0
0.276973 0.864583 0
0.269614 0.86753 0
0.262199 0.870478 0
0.254154 0.87146 0
0.244982 0.868513 0
0.235866 0.865565 0
0.227323 0.864583 0
0.219546 0.866548 0
0.211971 0.869495 0
0.203879 0.870478 0
0.195548 0.870478 0
0.187216 0.870478 0
0.178885 0.870478 0
0.170361 0.869495 0
0.161856 0.868513 0
0.153543 0.868513 0
0.145066 0.86753 0
0.137073 0.869495 0
0.129042 0.87146 0
0.120565 0.870478 0
0.11198 0.868513 0
0.103785 0.869495 0
0.0956783 0.87146 0
0.0875344 0.873425 0
0.0791748 0.873425 0
0.0707355 0.872443 0
0.0624555 0.873425 0
0.0541567 0.874408 0
0.0458391 0.87539 0
0.0374187 0.874408 0
0.0289844 0.872443 0
0.0206341 0.872443 0
0.0122977 0.873425 0
0.00394695 0.87539 0
-0.00442651 0.874408 0
-0.0127955 0.874408 0
-0.0211408 0.873425 0
-0.0295004 0.873425 0
-0.0379452 0.87539 0
-0.0464277 0.877355 0
-0.0548863 0.878337 0
-0.0632222 0.877355 0
-0.0716194 0.877355 0
-0.0800167 0.877355 0
-0.0884139 0.877355 0
-0.0967027 0.876372 0
-0.105091 0.876372 0
-0.113478 0.876372 0
-0.12173 0.87539 0
-0.130108 0.87539 0
-0.136932 0.859219 0
-0.145546 0.861169 0
-0.154024 0.862145 0
-0.16252 0.86312 0
-0.171035 0.864095 0
-0.179164 0.86312 0
-0.184308 0.842224 0
-0.192711 0.843192 0
-0.201362 0.845128 0
-0.209811 0.846096 0
-0.215037 0.82827 0
-0.223401 0.829231 0
-0.231785 0.830192 0
-0.237132 0.814431 0
-0.244876 0.813478 0
-0.250229 0.798815 0
-0.255718 0.785221 0
-0.260742 0.770811 0
-0.265921 0.757455 0
-0.273622 0.757455 0
-0.278232 0.743296 0
-0.283379 0.731088 0
-0.288031 0.718078 0
-0.29179 0.703391 0
-0.29536 0.688848 0
-0.303429 0.690625 0
-0.307536 0.677975 0
-0.311902 0.666315 0
-0.316136 0.654755 0
-0.319811 0.642436 0
-0.323773 0.631086 0
-0.327156 0.61899 0
-0.331301 0.608687 0
-0.334402 0.596808 0
-0.337352 0.585043 0
-0.340152 0.573395 0
-0.343296 0.562671 0
-0.346811 0.55285 0
-0.351752 0.545501 0
-0.356114 0.537408 0
-0.358806 0.527029 0
-0.361908 0.517526 0
-0.363245 0.505809 0
-0.365533 0.495741 0
-0.368258 0.486525 0
-0.372028 0.478885 0
-0.375134 0.470566 0
-0.378147 0.462318 0
-0.379852 0.452696 0
-0.382041 0.443891 0
-0.385369 0.43659 0
-0.389256 0.430048 0
-0.391154 0.421466 0
-0.393593 0.413658 0
-0.395938 0.405922 0
-0.397516 0.397585 0
-0.398981 0.389335 0
-0.401717 0.382487 0
-0.403676 0.375047 0
-0.406251 0.368322 0
-0.409471 0.362291 0
-0.411176 0.355045 0
-0.413526 0.348493 0
-0.415801 0.341999 0
-0.418757 0.33617 0
-0.419358 0.328582 0
-0.421397 0.322268 0
-0.424932 0.317184 0
-0.42179 0.31097 0
-0.417863 0.304243 0
-0.414721 0.298152 0
-0.411579 0.292118 0
-0.408438 0.286143 0
-0.405296 0.280225 0
-0.402154 0.274364 0
-0.399797 0.26909 0
-0.396656 0.263338 0
-0.394299 0.258157 0
-0.391943 0.25302 0
-0.388801 0.247426 0
-0.385659 0.24189 0
-0.382517 0.236411 0
-0.380161 0.231468 0
-0.377805 0.226569 0
-0.375448 0.221712 0
-0.371521 0.215986 0
-0.369165 0.21123 0
-0.366808 0.206518 0
-0.365237 0.202284 0
-0.362096 0.197223 0
-0.358954 0.19222 0
-0.356597 0.187688 0
-0.354241 0.183199 0
-0.351885 0.178753 0
-0.350314 0.174742 0
-0.347957 0.170376 0
-0.345601 0.166053 0
-0.343245 0.161772 0
-0.340888 0.157536 0
-0.339317 0.153698 0
-0.337746 0.149889 0
-0.336176 0.146109 0
-0.333819 0.142023 0
-0.332248 0.138308 0
-0.329892 0.134301 0
-0.327535 0.130338 0
-0.321286 0.126418 0
-0.315093 0.122541 0
