ply
format ascii 1.0
element vertex 51
property float x
property float y
property float z
end_header
-0.597519 1.4534 0
-0.504143 1.20893 0
-0.445507 1.10251 0
-0.443108 1.08061 0
-0.439509 1.056 0
-0.43191 1.02218 0
-0.43271 1.00848 0
-0.43311 0.993814 0
-0.436709 0.986341 0
-0.417513 0.927945 0
-0.422712 0.924271 0
-0.427111 0.918504 0
-0.429111 0.907345 0
-0.397117 0.866119 0
-0.390925 0.881329 0
-0.364793 0.852143 0
-0.363763 0.834479 0
-0.363419 0.818449 0
-0.365137 0.807002 0
-0.361015 0.78275 0
-0.353458 0.751541 0
-0.346588 0.722397 0
-0.34384 0.702248 0
-0.338687 0.67752 0
-0.332505 0.651205 0
-0.327352 0.627385 0
-0.320826 0.60142 0
-0.316704 0.58041 0
-0.312582 0.559746 0
-0.307429 0.537625 0
-0.302964 0.517109 0
-0.297811 0.495824 0
-0.293689 0.476644 0
-0.274687 0.459438 0
-0.255106 0.440906 0
-0.236551 0.423748 0
-0.218908 0.407878 0
-0.201316 0.391753 0
-0.184755 0.3773 0
-0.166937 0.359824 0
-0.150573 0.344934 0
-0.134335 0.329846 0
-0.118436 0.315018 0
-0.102603 0.299651 0
-0.0875362 0.285755 0
-0.0725727 0.271348 0
-0.0584665 0.259365 0
-0.0442037 0.24579 0
-0.030237 0.232147 0
-0.0168128 0.220981 0
-0.00347158 0.208112 0
