ply
format ascii 1.0
element vertex 96
property float x
property float y
property float z
end_header
-0.474025 1.41547 0
-0.466812 1.38414 0
-0.460629 1.35615 0
-0.454789 1.32942 0
-0.44895 1.30293 0
-0.444141 1.27966 0
-0.439332 1.25659 0
-0.434523 1.23373 0
-0.429714 1.21106 0
-0.424218 1.18667 0
-0.419409 1.16443 0
-0.413913 1.14049 0
-0.408417 1.11678 0
-0.403608 1.09517 0
-0.398799 1.07375 0
-0.393303 1.05071 0
-0.387807 1.02789 0
-0.384716 1.01163 0
-0.383342 0.99998 0
-0.379564 0.982163 0
-0.375442 0.963624 0
-0.370976 0.944383 0
-0.366167 0.924462 0
-0.362389 0.907323 0
-0.358267 0.88949 0
-0.353801 0.870984 0
-0.350366 0.85518 0
-0.347962 0.842014 0
-0.34487 0.827301 0
-0.341435 0.811901 0
-0.337657 0.795835 0
-0.334222 0.78073 0
-0.331474 0.767359 0
-0.328039 0.752528 0
-0.324261 0.73706 0
-0.320826 0.722524 0
-0.319108 0.711965 0
-0.317734 0.702236 0
-0.31533 0.690309 0
-0.312238 0.676993 0
-0.30949 0.664545 0
-0.306742 0.652212 0
-0.303994 0.639994 0
-0.301246 0.627891 0
-0.298155 0.615195 0
-0.295063 0.602628 0
-0.292315 0.590886 0
-0.289911 0.579946 0
-0.28785 0.569787 0
-0.285789 0.559714 0
-0.283728 0.549727 0
-0.28098 0.538511 0
-0.278232 0.527409 0
-0.275828 0.517067 0
-0.273423 0.506826 0
-0.271706 0.497944 0
-0.269301 0.48789 0
-0.267927 0.479782 0
-0.259256 0.471732 0
-0.256918 0.461937 0
-0.247413 0.452243 0
-0.238356 0.443237 0
-0.229412 0.434316 0
-0.220581 0.425482 0
-0.212149 0.4173 0
-0.203534 0.408631 0
-0.195032 0.40005 0
-0.186383 0.391011 0
-0.178116 0.382609 0
-0.170682 0.37588 0
-0.162843 0.368151 0
-0.154876 0.35998 0
-0.147447 0.35291 0
-0.140092 0.345897 0
-0.13262 0.338449 0
-0.125425 0.331558 0
-0.118131 0.324247 0
-0.110437 0.315595 0
-0.103671 0.309377 0
-0.0969605 0.303202 0
-0.0901701 0.296621 0
-0.0833278 0.289656 0
-0.0764616 0.282328 0
-0.076226 0.276797 0
-0.0759904 0.271295 0
-0.0694915 0.264995 0
-0.0626719 0.257128 0
-0.0563611 0.250973 0
-0.050286 0.245658 0
-0.0441068 0.239603 0
-0.0380029 0.233606 0
-0.0319743 0.227666 0
-0.0259356 0.221058 0
-0.0201426 0.21596 0
-0.0143634 0.210541 0
-0.00862621 0.204825 0
