ply
format ascii 1.0
element vertex 72
property float x
property float y
property float z
end_header
-0.407659 1.44996 0
-0.38291 1.45418 0
-0.356717 1.45312 0
-0.330561 1.45207 0
-0.304443 1.45101 0
-0.27897 1.45312 0
-0.253054 1.45312 0
-0.227632 1.45628 0
-0.201514 1.45523 0
-0.175306 1.45312 0
-0.149607 1.45523 0
-0.121324 1.40831 0
-0.0947978 1.3927 0
-0.0686797 1.35495 0
-0.043504 1.32581 0
-0.0188914 1.32884 0
0.00570559 1.30255 0
0.0299055 1.30154 0
0.0542781 1.30558 0
0.0780709 1.27901 0
0.10212 1.27801 0
0.126231 1.25954 0
0.147761 1.23793 0
0.169689 1.22515 0
0.192986 1.22417 0
0.21694 1.22712 0
0.237543 1.1946 0
0.253355 1.14345 0
0.26831 1.09518 0
0.285012 1.05896 0
0.301726 1.02607 0
0.313753 0.981163 0
0.32885 0.949518 0
0.32427 0.920993 0
0.336787 0.886079 0
0.349126 0.853503 0
0.346039 0.831421 0
0.356333 0.797454 0
0.367246 0.767359 0
0.363441 0.745649 0
0.356971 0.718862 0
0.350882 0.693317 0
0.361832 0.668233 0
0.356241 0.645056 0
0.35065 0.622282 0
0.345058 0.599912 0
0.339866 0.578626 0
0.336272 0.560376 0
0.330681 0.539129 0
0.326288 0.520197 0
0.305595 0.499714 0
0.286152 0.48085 0
0.268189 0.464113 0
0.249592 0.445898 0
0.231447 0.428028 0
0.214326 0.411605 0
0.19651 0.393327 0
0.181462 0.380145 0
0.16453 0.362544 0
0.149181 0.347809 0
0.134171 0.333333 0
0.119152 0.31819 0
0.105631 0.306509 0
0.0915802 0.292768 0
0.0776332 0.278446 0
0.0643954 0.265659 0
0.0514585 0.253102 0
0.0388225 0.240776 0
0.0265715 0.229407 0
0.0146158 0.228318 0
0.00275977 0.217164 0
-0.00884187 0.205515 0
